<?xml version="1.0" encoding="utf-8"?>
<!-- Generator: Adobe Illustrator 22.0.1, SVG Export Plug-In . SVG Version: 6.00 Build 0)  -->
<svg version="1.1" id="Layer_1" xmlns="http://www.w3.org/2000/svg" xmlns:xlink="http://www.w3.org/1999/xlink" x="0px" y="0px"
	 viewBox="0 0 67.6 69.3" style="enable-background:new 0 0 67.6 69.3;" xml:space="preserve">
<style type="text/css">
	.st0{fill:#F2F0E9;stroke:#444140;stroke-width:1.5;stroke-linejoin:round;stroke-miterlimit:10;}
	.st1{fill:#F2F0E9;}
	.st2{fill:#444140;}
	.st3{fill:#FFAE3C;stroke:#444140;stroke-width:2;stroke-linecap:round;stroke-linejoin:round;stroke-miterlimit:10;}
	.st4{fill:#FFAE3C;}
	.st5{fill:#444140;stroke:#444140;stroke-width:2;stroke-linejoin:round;stroke-miterlimit:10;}
</style>
<g>
	<path class="st0" d="M17.4,33.6c0,0-1.9-1.7-3-0.8c-1.1,0.9-0.8,3.6,0.6,4.7s3.2,0.1,3.2,0.1L17.4,33.6z"/>
	<path class="st0" d="M56.4,29c0,0,1.7-1.6,3.2-0.9c1.6,0.8,1.5,3.8,0.3,4.8c-1.3,1-3.3,1.4-3.3,1.4L56.4,29z"/>
</g>
<g>
	<path class="st1" d="M57.6,42.5c0,0-0.6-5.6-0.5-9.3s0.3-7.9-0.6-10.4s-4.4-6.6-4.4-6.6l-13.5-2.7l-14.8,2.3l-7.1,6.5l0.1,6.5
		c0,0,0.5,2.6,0.8,5.9S18,44,18,44L57.6,42.5z"/>
	<path class="st2" d="M57.1,42c-0.1,0.1-0.2,0.3-0.2,0.4c0,0.1,0,0.1,0,0.1l0,0l0-0.1l0-0.2l-0.1-0.4l-0.1-0.9l-0.2-1.7
		c-0.1-1.2-0.3-2.3-0.3-3.5C56,34.5,56,33.2,56,32.1c0-1.1,0-2.3,0-3.4c-0.1-2.2-0.2-4.5-1-6.2c-0.9-1.9-2.2-3.8-3.4-5.8l0,0L52,17
		l-13.5-2.7l0.3,0L24,16.5l0.4-0.2l-7.1,6.5l0,0l0.2-0.6c0.2,2.2,0.3,4.3,0.4,6.5l0-0.2c0.3,1.3,0.5,2.6,0.6,3.9
		c0.2,1.3,0.3,2.6,0.3,3.9c0.1,2.6,0.2,5.1,0,7.7l0,0L18,43.2C31,42.7,44,42.4,57.1,42z M58.2,43c-13.3,0.6-26.8,1.3-40.2,1.8
		l-0.7,0L17.3,44l0,0c-0.5-2.5-0.6-5.1-0.6-7.6c0-1.3-0.1-2.5-0.2-3.8c-0.1-1.2-0.3-2.5-0.5-3.7l0-0.1l0-0.1c0-2.2,0-4.3,0.1-6.5
		l0-0.4l0.2-0.2l0,0l7.1-6.5l0.2-0.2l0.2,0l14.7-2.2l0.1,0l0.1,0l13.5,2.7l0.2,0l0.2,0.2l0,0c1.8,1.6,3.3,3.3,4.5,5.6
		c0.3,0.6,0.6,1.2,0.7,1.9c0.2,0.6,0.3,1.3,0.3,1.9c0.1,1.2,0.2,2.4,0.2,3.6c0,2.4-0.2,4.7-0.2,6.9c0,1.1,0,2.3,0,3.4l0.1,1.7l0,0.9
		l0,0.4l0,0.2l0,0.1l0,0.1C58.4,42.6,58.3,42.9,58.2,43z"/>
</g>
<g>
	<path class="st1" d="M9.9,60.2c0,0,10.3,7.8,28.3,7.5s28.7-12,28.7-12s-4.2-3.3-6.5-6.8s-3-7.5-3-7.5h-19L18,44
		c0,0-0.6,5.2-2.8,8.9S9.9,60.2,9.9,60.2z"/>
	<path class="st2" d="M10.6,60.2c0-0.1,0-0.3-0.1-0.4c0,0,0,0-0.1-0.1l0,0l0,0l0.2,0.1l0.4,0.2c0.3,0.2,0.5,0.3,0.8,0.4
		c0.6,0.3,1.1,0.6,1.7,0.8c1.1,0.5,2.3,1,3.5,1.4c2.4,0.8,4.8,1.5,7.2,2.1c4.9,1,9.9,1.5,14.9,1.2c4.9-0.3,9.8-1.3,14.4-3.2
		c4.6-1.8,9-4.4,12.8-7.6l0,0l0.1,1.1c-1.2-1-2.3-2-3.3-3c-1-1.1-2.1-2.2-2.9-3.4c-0.9-1.2-1.6-2.6-2.2-4c-0.6-1.4-1-2.8-1.3-4.4
		l0.7,0.6h-19l0.1,0l-20.3,2.6l0,0l0.7-0.7c-0.2,1.6-0.5,3.1-0.9,4.7c-0.4,1.5-1,3-1.8,4.5c-0.8,1.4-1.7,2.7-2.6,3.9
		c-0.5,0.6-1,1.2-1.4,1.8l-0.8,0.9l-0.4,0.4l-0.2,0.2l-0.1,0.1l0,0.1l0,0c0,0,0.1-0.1,0.1-0.2C10.6,60.4,10.6,60.3,10.6,60.2z
		 M9.1,60.3c0-0.1,0-0.3,0.1-0.4c0-0.1,0.1-0.1,0.1-0.2l0,0l0-0.1l0.1-0.1l0.2-0.2l0.4-0.4l0.7-0.9c0.5-0.6,0.9-1.2,1.4-1.8
		c0.9-1.2,1.7-2.5,2.5-3.8c0.7-1.3,1.3-2.6,1.7-4.1c0.4-1.4,0.8-2.9,1-4.4l0,0c0.1-0.3,0.3-0.6,0.6-0.6l0,0l20.3-2.6
		c0,0,0.1,0,0.1,0h19c0.4,0,0.7,0.3,0.7,0.6l0,0c0.3,1.3,0.7,2.7,1.2,4c0.5,1.3,1.2,2.6,2,3.7c0.8,1.1,1.8,2.2,2.8,3.2
		c1,1,2.1,2,3.2,2.9c0.3,0.3,0.4,0.7,0.1,1.1l0,0l0,0l0,0c-1.7,2.1-3.7,3.8-5.8,5.4c-2.1,1.6-4.4,2.9-6.8,4
		c-4.8,2.3-10.1,3.4-15.4,3.6c-5.3,0.2-10.6-0.4-15.7-1.7c-2.5-0.7-5-1.6-7.4-2.7c-1.2-0.6-2.4-1.1-3.5-1.8c-0.6-0.3-1.1-0.7-1.7-1
		c-0.3-0.2-0.5-0.4-0.8-0.6l-0.4-0.3L9.6,61l-0.2-0.2C9.3,60.7,9.2,60.5,9.1,60.3z"/>
</g>
<g>
	<path class="st2" d="M17.2,63.6c0.2-0.6,0.5-0.9,0.9-1.3c0.4-0.3,0.8-0.6,1.2-0.9c0.8-0.6,1.5-1.3,2.3-2c1.5-1.4,2.8-2.9,4-4.6
		c0.1-0.2,0.3-0.2,0.5-0.1c0.1,0.1,0.2,0.3,0.1,0.4c-0.9,1.9-2,3.7-3.3,5.4c-0.6,0.8-1.3,1.7-2.1,2.4c-0.4,0.4-0.8,0.7-1.2,1.1
		c-0.4,0.3-0.9,0.6-1.5,0.7c-0.5,0-0.9-0.4-0.9-0.9C17.2,63.9,17.2,63.8,17.2,63.6L17.2,63.6z"/>
</g>
<g>
	<path class="st2" d="M26.8,66.1c-0.3-1.3,0.4-1.7,0.9-2.3c0.5-0.6,0.9-1.3,1.4-1.9c0.9-1.3,1.7-2.7,2.6-4.2
		c0.1-0.2,0.3-0.2,0.4-0.1c0.1,0.1,0.2,0.2,0.2,0.3c0,1.7-0.4,3.4-1,5.1c-0.3,0.8-0.7,1.6-1.1,2.4c-0.5,0.7-0.7,1.7-2,1.7
		C27.4,67.1,26.9,66.7,26.8,66.1L26.8,66.1z"/>
</g>
<g>
	<path class="st2" d="M38.1,67.3c-0.5-0.5-0.5-0.8-0.4-1.1c0.1-0.3,0.2-0.6,0.3-0.8c0.1-0.6,0.3-1.1,0.4-1.7
		c0.3-1.2,0.5-2.3,0.7-3.6l0,0c0.1-0.3,0.4-0.5,0.7-0.4c0.2,0,0.3,0.2,0.4,0.3c0.5,1.3,0.7,2.6,0.7,4c0,0.7-0.1,1.4-0.2,2
		c-0.1,0.3-0.1,0.7-0.2,1c-0.1,0.3-0.2,0.6-1,0.8C39.1,67.9,38.6,67.7,38.1,67.3L38.1,67.3z"/>
</g>
<g>
	<path class="st2" d="M51.2,65c-0.9,0.1-1.1-0.4-1.3-0.8c-0.2-0.4-0.4-0.8-0.5-1.2c-0.3-0.8-0.6-1.6-0.7-2.5c-0.4-1.7-0.5-3.4-0.4-5
		c0-0.2,0.2-0.4,0.4-0.4c0.2,0,0.3,0.1,0.4,0.3c0.7,1.5,1.2,3,1.9,4.4c0.3,0.7,0.7,1.4,1,2.1c0.2,0.3,0.4,0.7,0.6,1
		c0.2,0.3,0.5,0.5,0,1.3l-0.1,0.1C52.2,64.7,51.7,64.9,51.2,65z"/>
</g>
<g>
	<path class="st2" d="M60.8,61.2c-1.8-0.9-3.3-2.2-4.6-3.6c-1.3-1.4-2.4-3-3.3-4.6c-0.1-0.2-0.1-0.5,0.1-0.6
		c0.2-0.1,0.4-0.1,0.5,0.1c2.3,2.8,5.2,5.2,8.4,6.2c0.7,0.2,1.1,1,0.9,1.7c-0.2,0.7-1,1.1-1.7,0.9C61,61.2,60.9,61.2,60.8,61.2
		L60.8,61.2z"/>
</g>
<path class="st3" d="M35.4,48c2.3-0.8,5.8,0.3,6,0.5"/>
<g>
	<line class="st4" x1="22" y1="37.1" x2="2.4" y2="59"/>
	<path class="st2" d="M22.8,37.8c-1.8,1.7-3.5,3.5-5.1,5.3c-1.7,1.8-3.3,3.7-4.8,5.5c-1.6,1.9-3.1,3.8-4.6,5.7c-1.5,2-2.9,4-4.2,6.1
		c-0.6,1-2,1.3-3,0.7c-1-0.6-1.3-2-0.7-3c0.1-0.2,0.3-0.4,0.5-0.6c2-1.5,3.8-3.2,5.6-4.9c1.8-1.7,3.5-3.4,5.2-5.2
		c1.7-1.8,3.4-3.6,5-5.4c1.6-1.8,3.2-3.7,4.7-5.7c0.3-0.4,1-0.5,1.4-0.2c0.4,0.3,0.5,1,0.2,1.4C22.8,37.7,22.8,37.8,22.8,37.8z"/>
</g>
<g>
	<path class="st2" d="M38.5,32.2c0.6,0.5,1.1,1,1.6,1.5c0.2,0.3,0.5,0.6,0.7,0.9c0.2,0.3,0.4,0.7,0.5,1.3c0,0.3-0.1,0.7-0.2,0.9
		c-0.1,0.2-0.3,0.4-0.4,0.6c-0.3,0.3-0.6,0.6-0.9,0.9c-0.7,0.4-1.3,0.8-2.1,0.8c-0.4,0-0.8-0.3-0.9-0.7c0-0.3,0.1-0.5,0.3-0.7l0.1,0
		c0.5-0.4,1.1-0.7,1.7-1c0.3-0.1,0.6-0.3,0.8-0.4c0.2-0.1,0.4-0.3,0.4-0.3c0-0.1-0.1-0.4-0.2-0.7c-0.1-0.3-0.3-0.6-0.5-0.8
		c-0.4-0.5-0.9-1.1-1.4-1.5l0,0c-0.2-0.2-0.2-0.5,0-0.7C38,32,38.3,32,38.5,32.2z"/>
</g>
<circle class="st5" cx="45.7" cy="32" r="1.1"/>
<g>
	<path class="st2" d="M42.9,28.5c0.9-0.5,1.8-0.9,2.7-1.4c0.4-0.3,0.9-0.5,1.3-0.8c0.4-0.3,0.8-0.5,1.2-0.8c0.4-0.3,1.1-0.2,1.4,0.2
		c0.3,0.4,0.2,1.1-0.2,1.4l0,0c-0.5,0.3-0.9,0.6-1.4,0.9c-0.5,0.2-1,0.5-1.5,0.6c-1,0.3-2,0.6-3.1,0.8c-0.3,0-0.5-0.1-0.6-0.4
		C42.6,28.8,42.7,28.6,42.9,28.5z"/>
</g>
<g>
	<path class="st1" d="M11.9,39.9c0,0,2.8,4,11.5,2.6s7-3.2,9.7-3.4c2.7-0.3,2.6,1.4,5.3,1.3s2.9-2,5.4-2.2c2.6-0.2,7,3.8,12.1,2.3
		c5.1-1.6,8.4-5.3,8.4-5.3s-2.4,6.4-8.5,7.8c-5.9,1.3-13.9,0-17.2,0.2c-3.3,0.2-9.1,2.9-16,2.4S13.7,42.4,11.9,39.9z"/>
	<path class="st2" d="M12.3,40.5c0.1-0.1,0.3-0.2,0.3-0.5c0-0.3-0.1-0.5-0.1-0.5l0,0l0.1,0.1l0.1,0.1c0.1,0.1,0.2,0.2,0.3,0.3
		c0.2,0.2,0.4,0.3,0.6,0.5c0.5,0.3,0.9,0.6,1.4,0.7c1,0.4,2.1,0.6,3.2,0.7c2.3,0.2,4.5-0.1,6.8-0.6c1.1-0.2,2.3-0.5,3.3-0.9
		c0.5-0.2,1-0.4,1.5-0.7c0.5-0.3,0.8-0.6,1.5-1c0.7-0.4,1.4-0.5,2.1-0.5c0.7,0,1.4,0.1,2.1,0.4c0.6,0.3,1.1,0.6,1.5,0.8
		c0.4,0.1,0.9,0.2,1.5,0.1c1.1,0,1.8-0.5,2.8-1.3c0.5-0.4,1.2-0.7,1.9-0.8c0.3-0.1,0.7-0.1,1.1-0.1c0.4,0,0.7,0.1,1,0.2
		c1.3,0.4,2.3,0.9,3.4,1.3c1.1,0.4,2.2,0.8,3.2,1c1.1,0.2,2.2,0.2,3.2-0.1c1-0.2,2.1-0.7,3.1-1.2c2-1,3.9-2.4,5.5-4l0,0
		c0.3-0.3,0.8-0.3,1.1-0.1c0.2,0.2,0.3,0.5,0.2,0.8c-0.5,1.2-1.1,2.3-1.8,3.4c-0.7,1-1.6,2-2.6,2.8c-1,0.8-2.2,1.5-3.4,2
		c-1.3,0.4-2.5,0.6-3.8,0.8c-2.5,0.3-5,0.3-7.4,0.2c-2.4-0.1-4.9-0.3-7.2-0.3c-1,0-2.2,0.3-3.3,0.6c-1.2,0.3-2.3,0.6-3.6,0.9
		c-2.4,0.5-4.9,0.9-7.4,0.9c-1.3,0-2.5-0.1-3.8-0.3c-1.2-0.2-2.5-0.5-3.7-0.9c-1.2-0.5-2.4-1.2-3.4-2c-0.5-0.4-0.9-0.9-1.3-1.4
		c-0.2-0.3-0.4-0.5-0.6-0.8l-0.1-0.2l-0.1-0.1c0,0,0,0,0.1,0c0.1,0,0.2,0,0.4,0C12.2,40.8,12.3,40.7,12.3,40.5z M11.5,39.3
		c0.1,0,0.3,0,0.5,0c0.2,0,0.5,0.2,0.6,0.3c0.1,0.1,0.1,0.2,0.2,0.2l0.1,0.1l0.1,0.2c0.2,0.2,0.4,0.4,0.6,0.7
		c0.4,0.4,0.8,0.8,1.2,1.2c0.9,0.7,1.8,1.2,2.9,1.6c2.1,0.7,4.5,1,6.8,0.9c2.3,0,4.6-0.4,7-0.9c1.2-0.3,2.3-0.6,3.5-0.9
		c1.2-0.3,2.4-0.6,3.8-0.7c2.6,0,4.9,0.3,7.4,0.4c2.4,0.1,4.8,0.2,7.1-0.1c1.1-0.1,2.3-0.3,3.3-0.6c1-0.4,2-0.9,2.9-1.6
		c1.8-1.3,3.2-3.3,4.2-5.3l1.3,0.8l0,0c-1.7,1.8-3.7,3.2-5.9,4.4c-1.1,0.5-2.2,1-3.5,1.3c-1.3,0.3-2.6,0.3-3.8,0.1
		c-2.5-0.4-4.7-1.7-6.8-2.3c-1-0.3-1.9-0.1-2.8,0.5c-0.4,0.3-0.9,0.7-1.6,1c-0.6,0.3-1.3,0.5-2,0.5c-0.7,0-1.4,0-2-0.2
		c-0.7-0.2-1.2-0.6-1.7-0.8c-0.4-0.2-0.9-0.3-1.4-0.3c-0.5,0-1,0.1-1.3,0.3c-0.4,0.2-0.9,0.7-1.4,1c-0.6,0.3-1.1,0.6-1.7,0.8
		c-1.2,0.4-2.4,0.7-3.5,1c-2.3,0.5-4.8,0.8-7.3,0.6c-1.2-0.1-2.5-0.4-3.7-0.9c-0.6-0.2-1.2-0.5-1.7-0.9c-0.3-0.2-0.5-0.4-0.8-0.6
		c-0.1-0.1-0.2-0.2-0.4-0.3l-0.2-0.2l-0.1-0.1l0-0.1c-0.1-0.1-0.2-0.3-0.2-0.6C11.2,39.6,11.4,39.4,11.5,39.3z"/>
</g>
<g>
	<path class="st1" d="M16.8,28.5c0,0,1.1-9,5.8-9.8s13.9,6,13.9,6l-1.3-5.5c0,0,3.8,2.1,5.8,3.3s5,1.4,5,1.4s-0.8-4.1-1.3-5
		s-2.3-2.1-2.3-2.1s4.6,3.1,10.8,1.6s8.5-4.6,8.5-4.6s-7-1.8-8.8-2.9s-4.5-1.6-4.6-4.4s1.5-5.8,1.5-5.8s-4.5,4.6-12.5,6.5
		s-17.9,2.4-20.9,5.9C13.6,16.4,14.7,22,16.8,28.5z"/>
	<path class="st2" d="M16.7,27.7c-0.1,0-0.3,0-0.5,0.2C16.1,28,16,28.3,16,28.3l0-0.1l0-0.2l0-0.4c0-0.3,0-0.6,0.1-0.9
		c0.1-0.6,0.2-1.2,0.3-1.8c0.3-1.2,0.6-2.3,1.2-3.4c0.6-1.1,1.3-2.2,2.5-3.1c0.3-0.2,0.7-0.4,1-0.5c0.4-0.1,0.7-0.2,1.1-0.3
		c0.4,0,0.7-0.1,1.1-0.1c0.3,0,0.7,0.1,1,0.1c2.6,0.4,4.7,1.5,6.7,2.6c2,1.2,3.9,2.5,5.7,4l-1.2,0.8l-1.2-5.5
		c-0.1-0.4,0.2-0.8,0.6-0.9c0.2,0,0.4,0,0.5,0.1l0,0c1.8,0.9,3.5,1.9,5.2,2.8l0.6,0.4c0.2,0.1,0.4,0.2,0.6,0.3
		c0.4,0.2,0.8,0.3,1.3,0.5c0.9,0.3,1.8,0.5,2.7,0.6L45.2,24l0,0c-0.3-1.3-0.5-2.7-0.9-4c-0.1-0.3-0.2-0.7-0.3-0.8
		c-0.1-0.2-0.3-0.4-0.5-0.6c-0.4-0.4-1-0.9-1.5-1.2l0,0c-0.3-0.2-0.4-0.7-0.2-1c0.2-0.3,0.5-0.4,0.8-0.3l0.2,0.1
		c1.5,0.5,3.1,0.9,4.7,1.1c1.6,0.2,3.2,0.2,4.7-0.1c1.6-0.3,3.2-0.8,4.7-1.4c1.5-0.6,3-1.5,4.1-2.5l0,0l0.4,1.2
		c-1.8-0.5-3.6-0.9-5.3-1.5c-0.9-0.3-1.8-0.6-2.7-1c-0.2-0.1-0.4-0.2-0.7-0.3l-0.3-0.2l-0.3-0.2c-0.4-0.2-0.8-0.4-1.2-0.6
		c-0.8-0.4-1.7-0.9-2.5-1.7c-0.4-0.4-0.7-0.9-0.8-1.5C47.5,7,47.5,6.5,47.5,6c0.1-2,0.7-3.8,1.6-5.6l0,0l1.2,0.9
		c-1.6,1.7-3.5,2.9-5.4,4c-2,1.1-4,2-6.2,2.6c-4.3,1.2-8.6,1.8-12.8,2.7c-2.1,0.4-4.2,0.9-6,1.7c-0.9,0.4-1.8,0.9-2.3,1.5
		c-0.6,0.6-1,1.4-1.2,2.3c-0.5,1.8-0.3,3.9,0.1,5.9c0.2,1,0.4,2.1,0.6,3.1l0.3,1.6c0,0.1,0.1,0.3,0.1,0.4c0,0,0,0.1-0.1,0.1
		C17,27.2,16.8,27.4,16.7,27.7z M16.8,29.2c-0.2-0.2-0.6-0.5-0.9-0.9c-0.1-0.2-0.3-0.5-0.4-0.7l-0.2-0.4c-0.2-0.5-0.4-1-0.6-1.6
		c-0.4-1.1-0.7-2.1-0.9-3.2c-0.2-1.1-0.4-2.2-0.4-3.4c0-1.2,0.1-2.4,0.4-3.6c0.3-1.2,0.9-2.4,1.9-3.3c1-1,2.1-1.5,3.1-2
		c2.2-0.9,4.3-1.3,6.5-1.8C29.7,7.5,34.1,7,38.2,6c4-1.1,8-3,11.1-5.8l0,0c0.3-0.3,0.8-0.2,1.1,0.1c0.2,0.2,0.2,0.6,0.1,0.8l0,0
		C49.7,2.6,49.1,4.4,49,6c0,0.8,0.1,1.5,0.6,2c0.5,0.5,1.2,0.9,2,1.3c0.4,0.2,0.8,0.4,1.3,0.6l0.3,0.2l0.3,0.1
		c0.2,0.1,0.4,0.2,0.6,0.3c0.8,0.3,1.7,0.6,2.5,0.9c1.7,0.5,3.5,1,5.2,1.5c0.4,0.1,0.6,0.5,0.5,0.9c0,0.1-0.1,0.2-0.1,0.2l0,0l0,0
		c-1.2,1.6-2.7,2.7-4.3,3.7c-1.6,0.9-3.4,1.5-5.2,1.9c-0.9,0.2-1.9,0.3-2.8,0.3c-1,0-1.9-0.1-2.8-0.3c-1.9-0.4-3.6-1.2-5.1-2.5
		l0.9-1.2l0,0c0.6,0.4,1.1,0.9,1.7,1.4c0.3,0.3,0.5,0.5,0.8,1c0.2,0.5,0.3,0.8,0.4,1.1c0.4,1.4,0.7,2.7,0.9,4.1l0,0
		c0.1,0.4-0.2,0.8-0.6,0.9c-0.1,0-0.1,0-0.2,0l0,0c-1.1-0.1-2-0.2-3.1-0.5c-0.5-0.1-1-0.3-1.5-0.5c-0.2-0.1-0.5-0.2-0.7-0.4
		l-0.7-0.4c-1.7-1-3.4-1.9-5.1-3l0,0l1.1-0.8l1.3,5.5c0.1,0.4-0.2,0.8-0.6,0.9c-0.2,0-0.4,0-0.6-0.1l-0.1,0
		c-1.9-1.2-3.9-2.3-5.9-3.2c-2-1-4.1-1.8-6-2.1c-0.2,0-0.5-0.1-0.7-0.1l-0.6,0c-0.2,0.1-0.4,0.1-0.5,0.2c-0.2,0.1-0.3,0.2-0.5,0.3
		c-0.7,0.4-1.3,1.3-1.8,2.1c-0.5,0.9-0.9,1.9-1.3,2.9c-0.2,0.5-0.4,1-0.5,1.6l-0.2,0.8l-0.1,0.4l-0.1,0.2l0,0.1
		c0,0.1-0.1,0.3-0.2,0.5C17.2,29.1,17,29.2,16.8,29.2z"/>
</g>
<g>
	<path class="st2" d="M46.3,13.6c1.2,0.4,2.4,0.7,3.6,0.9c1.2,0.1,2.4,0.1,3.6,0c1.2-0.1,2.4-0.4,3.6-0.6c1.2-0.2,2.5-0.5,3.7-0.7
		c0.4-0.1,0.8,0.2,0.8,0.7c0,0.4-0.2,0.7-0.5,0.8c-1.2,0.4-2.4,0.8-3.7,1.1c-1.3,0.3-2.6,0.5-3.9,0.6c-1.3,0.1-2.7,0-4-0.4
		c-1.3-0.4-2.5-0.9-3.6-1.7c-0.1-0.1-0.2-0.3-0.1-0.4C46.1,13.6,46.2,13.6,46.3,13.6z"/>
</g>
<g>
	<path class="st2" d="M33.7,31.3c0.1-1.6-0.5-3.1-1.7-4.3c-1.1-1.2-2.7-1.9-4.4-2c-1.7-0.1-3.4,0.6-4.7,1.7c-1.2,1.2-2,2.9-1.9,4.5
		c0,1.7,0.8,3.3,2.1,4.4c1.2,1.1,2.9,1.6,4.5,1.5C30.8,37.1,33.5,34.4,33.7,31.3z M35.8,31.3c0.1,2.1-0.8,4.3-2.4,5.8
		c-1.6,1.4-3.7,2.2-5.8,2.1c-2.1-0.1-4.1-1-5.6-2.4c-1.5-1.4-2.3-3.5-2.2-5.5c0-2,0.9-4,2.4-5.3c1.4-1.4,3.4-2.1,5.4-2.2
		c2-0.1,4,0.6,5.6,2C34.8,27.1,35.7,29.1,35.8,31.3z"/>
</g>
</svg>
