<?xml version="1.0" encoding="utf-8"?>
<!-- Generator: Adobe Illustrator 22.0.1, SVG Export Plug-In . SVG Version: 6.00 Build 0)  -->
<svg version="1.1" id="Layer_1" xmlns="http://www.w3.org/2000/svg" xmlns:xlink="http://www.w3.org/1999/xlink" x="0px" y="0px"
	 viewBox="0 0 58.5 69.3" style="enable-background:new 0 0 58.5 69.3;" xml:space="preserve">
<style type="text/css">
	.st0{display:none;fill:none;stroke:#444140;stroke-miterlimit:10;}
	.st1{display:none;fill:#FFAE3C;stroke:#FFAE3C;stroke-width:1.5;stroke-linejoin:round;stroke-miterlimit:10;}
	.st2{fill:#F9F8F4;stroke:#444140;stroke-width:1.5;stroke-linejoin:round;stroke-miterlimit:10;}
	.st3{fill:#F9F8F4;}
	.st4{fill:#444140;}
	.st5{fill:#FFAE3C;stroke:#444140;stroke-linejoin:round;stroke-miterlimit:10;}
	.st6{fill:#F97F00;}
	.st7{fill:none;stroke:#444140;stroke-width:2.2777;stroke-linejoin:round;stroke-miterlimit:10;}
</style>
<line class="st0" x1="-26.5" y1="435.6" x2="-17.5" y2="435.6"/>
<line class="st0" x1="70.1" y1="435.6" x2="79.1" y2="435.6"/>
<line class="st1" x1="21.4" y1="405.1" x2="19.9" y2="400.9"/>
<line class="st1" x1="34.9" y1="404.8" x2="36.7" y2="400"/>
<g>
	<path class="st2" d="M8.3,33.6c0,0-1.9-1.7-3-0.8c-1.1,0.9-0.8,3.6,0.6,4.7s3.2,0.1,3.2,0.1L8.3,33.6z"/>
	<path class="st2" d="M47.3,29c0,0,1.7-1.6,3.2-0.9c1.6,0.8,1.5,3.8,0.3,4.8c-1.3,1-3.3,1.4-3.3,1.4L47.3,29z"/>
</g>
<g>
	<path class="st3" d="M48.5,42.5c0,0-0.6-5.6-0.5-9.3s0.3-7.9-0.6-10.4S43,16.2,43,16.2l-13.5-2.7l-14.8,2.3l-7.1,6.5l0.1,6.5
		c0,0,0.5,2.6,0.7,5.9S8.9,44,8.9,44L48.5,42.5z"/>
	<path class="st4" d="M48,42c-0.1,0.1-0.2,0.3-0.2,0.4c0,0.1,0,0.1,0,0.1l0,0l0-0.1l0-0.2l-0.1-0.4l-0.1-0.9l-0.2-1.7
		c-0.1-1.2-0.3-2.3-0.3-3.5c-0.1-1.2-0.1-2.4-0.1-3.5c0-1.1,0-2.3,0-3.4c-0.1-2.2-0.2-4.5-1-6.2c-0.9-1.9-2.2-3.8-3.4-5.8l0,0
		l0.4,0.2l-13.5-2.7l0.3,0l-14.7,2.2l0.4-0.2l-7.1,6.5l0,0l0.2-0.6c0.2,2.2,0.3,4.3,0.4,6.5l0-0.2c0.3,1.3,0.5,2.6,0.6,3.9
		c0.2,1.3,0.3,2.6,0.3,3.9c0.1,2.6,0.2,5.1,0,7.7l0,0l-0.8-0.7C21.9,42.7,34.9,42.4,48,42z M49.1,43c-13.3,0.6-26.8,1.3-40.2,1.8
		l-0.7,0L8.2,44l0,0c-0.5-2.5-0.6-5.1-0.6-7.6c0-1.3-0.1-2.5-0.2-3.8c-0.1-1.2-0.3-2.5-0.5-3.7l0-0.1l0-0.1c0-2.2,0-4.3,0.1-6.5
		l0-0.4l0.2-0.2l0,0l7.1-6.5l0.2-0.2l0.2,0l14.7-2.2l0.1,0l0.1,0l13.5,2.7l0.2,0l0.2,0.2l0,0c1.8,1.6,3.3,3.3,4.5,5.6
		c0.3,0.6,0.6,1.2,0.7,1.9c0.2,0.6,0.3,1.3,0.3,1.9c0.1,1.2,0.2,2.4,0.2,3.6c0,2.4-0.2,4.7-0.2,6.9c0,1.1,0,2.3,0,3.4l0.1,1.7l0,0.9
		l0,0.4l0,0.2l0,0.1l0,0.1C49.3,42.6,49.2,42.9,49.1,43z"/>
</g>
<g>
	<path class="st3" d="M0.7,60.2c0,0,10.3,7.8,28.3,7.5s28.7-12,28.7-12s-4.2-3.3-6.5-6.8c-2.3-3.5-3-7.5-3-7.5h-19L8.9,44
		c0,0-0.6,5.2-2.8,8.9S0.7,60.2,0.7,60.2z"/>
	<path class="st4" d="M1.5,60.2c0-0.1,0-0.3-0.1-0.4c0,0,0,0-0.1-0.1l0,0l0,0l0.2,0.1L2,60.1c0.3,0.2,0.5,0.3,0.8,0.4
		c0.6,0.3,1.1,0.6,1.7,0.8c1.1,0.5,2.3,1,3.5,1.4c2.4,0.8,4.8,1.5,7.2,2.1c4.9,1,9.9,1.5,14.9,1.2c4.9-0.3,9.8-1.3,14.4-3.2
		c4.6-1.8,9-4.4,12.8-7.6l0,0l0.1,1.1c-1.2-1-2.3-2-3.3-3c-1-1.1-2.1-2.2-2.9-3.4c-0.9-1.2-1.6-2.6-2.2-4c-0.6-1.4-1-2.8-1.3-4.4
		l0.7,0.6h-19l0.1,0L9,44.7l0,0l0.7-0.7c-0.2,1.6-0.5,3.1-0.9,4.7c-0.4,1.5-1,3-1.8,4.5c-0.8,1.4-1.7,2.7-2.6,3.9
		c-0.5,0.6-1,1.2-1.4,1.8l-0.8,0.9l-0.4,0.4l-0.2,0.2l-0.1,0.1l0,0.1l0,0c0,0,0.1-0.1,0.1-0.2C1.5,60.4,1.5,60.3,1.5,60.2z M0,60.3
		c0-0.1,0-0.3,0.1-0.4c0-0.1,0.1-0.1,0.1-0.2l0,0l0-0.1l0.1-0.1l0.2-0.2l0.4-0.4L1.6,58c0.5-0.6,0.9-1.2,1.4-1.8
		c0.9-1.2,1.7-2.5,2.5-3.8c0.7-1.3,1.3-2.6,1.7-4.1c0.4-1.4,0.8-2.9,1-4.4l0,0c0.1-0.3,0.3-0.6,0.6-0.6l0,0l20.3-2.6
		c0,0,0.1,0,0.1,0h19c0.4,0,0.7,0.3,0.7,0.6l0,0c0.3,1.3,0.7,2.7,1.2,4c0.5,1.3,1.2,2.6,2,3.7c0.8,1.1,1.8,2.2,2.8,3.2
		c1,1,2.1,2,3.2,2.9c0.3,0.3,0.4,0.7,0.1,1.1l0,0l0,0l0,0c-1.7,2.1-3.7,3.8-5.8,5.4c-2.1,1.6-4.4,2.9-6.8,4
		c-4.8,2.3-10.1,3.4-15.4,3.6c-5.3,0.2-10.6-0.4-15.7-1.7c-2.5-0.7-5-1.6-7.4-2.7c-1.2-0.6-2.4-1.1-3.5-1.8c-0.6-0.3-1.1-0.7-1.7-1
		c-0.3-0.2-0.5-0.4-0.8-0.6l-0.4-0.3L0.5,61l-0.2-0.2C0.2,60.7,0,60.5,0,60.3z"/>
</g>
<g>
	<path class="st4" d="M8.1,63.6c0.2-0.6,0.5-0.9,0.9-1.3c0.4-0.3,0.8-0.6,1.2-0.9c0.8-0.6,1.5-1.3,2.3-2c1.5-1.4,2.8-2.9,4-4.6
		c0.1-0.2,0.3-0.2,0.5-0.1c0.1,0.1,0.2,0.3,0.1,0.4c-0.9,1.9-2,3.7-3.3,5.4c-0.6,0.8-1.3,1.7-2.1,2.4c-0.4,0.4-0.8,0.7-1.2,1.1
		c-0.4,0.3-0.9,0.6-1.5,0.7c-0.5,0-0.9-0.4-0.9-0.9C8.1,63.9,8.1,63.8,8.1,63.6L8.1,63.6z"/>
</g>
<g>
	<path class="st4" d="M17.7,66.1c-0.3-1.3,0.4-1.7,0.9-2.3c0.5-0.6,0.9-1.3,1.4-1.9c0.9-1.3,1.7-2.7,2.6-4.2
		c0.1-0.2,0.3-0.2,0.4-0.1c0.1,0.1,0.2,0.2,0.2,0.3c0,1.7-0.4,3.4-1,5.1c-0.3,0.8-0.7,1.6-1.1,2.4c-0.5,0.7-0.7,1.7-2,1.7
		C18.3,67.1,17.8,66.7,17.7,66.1L17.7,66.1z"/>
</g>
<g>
	<path class="st4" d="M29,67.3c-0.5-0.5-0.5-0.8-0.4-1.1c0.1-0.3,0.2-0.6,0.3-0.8c0.1-0.6,0.3-1.1,0.4-1.7c0.3-1.2,0.5-2.3,0.7-3.6
		l0,0c0.1-0.3,0.4-0.5,0.7-0.4c0.2,0,0.3,0.2,0.4,0.3c0.5,1.3,0.7,2.6,0.7,4c0,0.7-0.1,1.4-0.2,2c-0.1,0.3-0.1,0.7-0.2,1
		c-0.1,0.3-0.2,0.6-1,0.8C29.9,67.9,29.4,67.7,29,67.3L29,67.3z"/>
</g>
<g>
	<path class="st4" d="M42.1,65c-0.9,0.1-1.1-0.4-1.3-0.8c-0.2-0.4-0.4-0.8-0.5-1.2c-0.3-0.8-0.6-1.6-0.7-2.5c-0.4-1.7-0.5-3.4-0.4-5
		c0-0.2,0.2-0.4,0.4-0.4c0.2,0,0.3,0.1,0.4,0.3c0.7,1.5,1.2,3,1.9,4.4c0.3,0.7,0.7,1.4,1,2.1c0.2,0.3,0.4,0.7,0.6,1
		c0.2,0.3,0.5,0.5,0,1.3l-0.1,0.1C43,64.7,42.6,64.9,42.1,65z"/>
</g>
<g>
	<path class="st4" d="M51.7,61.2c-1.8-0.9-3.3-2.2-4.6-3.6c-1.3-1.4-2.4-3-3.3-4.6c-0.1-0.2-0.1-0.5,0.1-0.6
		c0.2-0.1,0.4-0.1,0.5,0.1c2.3,2.8,5.2,5.2,8.4,6.2c0.7,0.2,1.1,1,0.9,1.7c-0.2,0.7-1,1.1-1.7,0.9C51.9,61.2,51.8,61.2,51.7,61.2
		L51.7,61.2z"/>
</g>
<g>
	<path class="st3" d="M18.2,44.7c0,0,1.6,6.9,10.9,6.5s11.8-8,11.8-8l-5.6-1.7L24.7,42L18.2,44.7z"/>
	<path class="st4" d="M18.8,45c0.1-0.1,0.1-0.2,0.1-0.3c0,0,0-0.1,0-0.1l0,0l0,0.1l0.1,0.2c0,0.1,0.1,0.2,0.2,0.4
		c0.1,0.2,0.2,0.5,0.4,0.7c0.3,0.5,0.6,0.9,1,1.3c0.7,0.8,1.6,1.5,2.6,1.9c2,1,4.3,1.2,6.6,1c2.3-0.2,4.5-0.8,6.3-2.1
		c1.8-1.2,3.4-3.1,4.2-5.1l0,0l0.5,0.9l-5.6-1.7l0.3,0l-10.6,0.5l0.2-0.1C23,43.5,20.9,44.3,18.8,45z M17.5,44.3
		c2.3-1,4.6-2.1,6.9-3c0.1,0,0.2-0.1,0.2-0.1l10.6-0.5c0.1,0,0.2,0,0.3,0l5.6,1.7l0,0c0.4,0.1,0.6,0.5,0.5,0.9l0,0l0,0
		c-0.9,2.5-2.5,4.6-4.6,6.1c-2.1,1.6-4.7,2.3-7.2,2.5c-2.5,0.2-5.2,0-7.5-1.3c-1.2-0.6-2.2-1.4-3.1-2.4c-0.4-0.5-0.8-1.1-1.1-1.6
		c-0.1-0.3-0.3-0.6-0.4-0.9c-0.1-0.2-0.1-0.3-0.2-0.5l-0.1-0.2l0-0.1l0,0c0,0,0-0.1,0-0.2C17.4,44.6,17.4,44.5,17.5,44.3z"/>
</g>
<g>
	<path class="st4" d="M21,48c-0.1,0-0.1,0-0.2,0c0,0-0.1,0-0.1,0l0,0l0.1,0L21,48l0.2-0.1l0.5-0.1l1.1-0.2c0.7-0.1,1.4-0.3,2.1-0.4
		c1.4-0.2,2.9-0.4,4.3-0.4c2.9-0.1,5.7,0.1,8.6,0.2l0,0l-0.6,0.2c1.3-1.1,2.2-2.7,3-4.3l0.5,1.1l-6-1.6l0.2,0l-5.5,0.2
		c-0.9,0-1.8,0.1-2.7,0.2L24.1,43l0.2-0.1l-5.8,2.4l0.4-0.9c0.2,0.7,0.5,1.5,0.9,2.1c0.1,0.2,0.2,0.3,0.3,0.4l0.4,0.4l0.4,0.4
		l0.2,0.2l0.1,0.1l0,0l0,0l0,0l0,0C21.4,48.2,21.2,48,21,48z M20.8,49.5c-0.2,0-0.4-0.2-0.3-0.1l0,0l0,0l0,0l-0.1-0.1l-0.1-0.1
		l-0.3-0.2l-0.5-0.5L19,48c-0.2-0.2-0.3-0.4-0.4-0.6c-0.3-0.4-0.5-0.8-0.6-1.2c-0.2-0.4-0.3-0.8-0.5-1.3c-0.1-0.4,0.1-0.8,0.4-0.9
		l0,0l5.8-2.4c0.1,0,0.1,0,0.2-0.1l2.7-0.3c0.9-0.1,1.8-0.2,2.7-0.2l5.5-0.2c0.1,0,0.2,0,0.2,0l6,1.6c0.4,0.1,0.6,0.5,0.5,0.9
		c0,0.1,0,0.1-0.1,0.2c-0.9,1.6-1.8,3.4-3.4,4.7l0,0c-0.2,0.1-0.4,0.2-0.5,0.1l0,0c-1.4-0.3-2.8-0.5-4.2-0.7
		c-1.4-0.2-2.8-0.2-4.2-0.2c-1.4,0-2.8,0.2-4.1,0.6c-0.7,0.2-1.4,0.4-2,0.6l-1,0.4l-0.5,0.2l-0.2,0.1l-0.1,0.1l-0.1,0l0,0
		c0,0-0.1,0-0.1,0C21,49.5,20.9,49.5,20.8,49.5z"/>
</g>
<line class="st5" x1="25.5" y1="47.7" x2="24.5" y2="42.7"/>
<g>
	<path class="st6" d="M29.9,48c-0.2,0-0.4-0.2-0.4-0.4l-0.1-5.6c0-0.1,0.1-0.2,0.1-0.3c0.1-0.1,0.2-0.1,0.3-0.1c0,0,0.1,0,0.1,0
		l4.7,0.9c0.2,0,0.4,0.2,0.3,0.4L34.6,48c0,0.1-0.1,0.2-0.1,0.3c-0.1,0.1-0.2,0.1-0.3,0.1C34.2,48.4,29.9,48,29.9,48z"/>
	<path class="st4" d="M29.8,41.9l4.7,0.9L34.2,48l-4.3-0.4L29.8,41.9 M29.8,41.1c-0.2,0-0.4,0.1-0.5,0.2c-0.2,0.2-0.3,0.4-0.3,0.7
		l0.1,5.6c0,0.4,0.3,0.8,0.8,0.8l4.3,0.4c0,0,0,0,0.1,0c0.2,0,0.4-0.1,0.6-0.2c0.2-0.1,0.3-0.4,0.3-0.6l0.3-5.1
		c0-0.4-0.3-0.8-0.7-0.9l-4.7-0.9C29.9,41.1,29.8,41.1,29.8,41.1L29.8,41.1z"/>
</g>
<g>
	<path class="st4" d="M29.4,32.2c0.6,0.5,1.1,1,1.6,1.5c0.2,0.3,0.5,0.6,0.7,0.9c0.2,0.3,0.4,0.7,0.5,1.3c0,0.3-0.1,0.7-0.2,0.9
		c-0.1,0.2-0.3,0.4-0.4,0.6c-0.3,0.3-0.6,0.6-0.9,0.9c-0.7,0.4-1.3,0.8-2.1,0.8c-0.4,0-0.8-0.3-0.9-0.7c0-0.3,0.1-0.5,0.3-0.7l0.1,0
		c0.5-0.4,1.1-0.7,1.7-1c0.3-0.1,0.6-0.3,0.8-0.4c0.2-0.1,0.4-0.3,0.4-0.3c0-0.1-0.1-0.4-0.2-0.7c-0.1-0.3-0.3-0.6-0.5-0.8
		c-0.4-0.5-0.9-1.1-1.4-1.5l0,0c-0.2-0.2-0.2-0.5,0-0.7C28.9,32,29.2,32,29.4,32.2z"/>
</g>
<g>
	<path class="st3" d="M2.8,39.9c0,0,2.8,4,11.5,2.6s7-3.2,9.7-3.4c2.7-0.3,2.6,1.4,5.3,1.3s2.9-2,5.4-2.2c2.6-0.2,7,3.8,12.1,2.3
		c5.1-1.6,8.4-5.3,8.4-5.3s-2.4,6.4-8.5,7.8c-5.9,1.3-13.9,0-17.2,0.2c-3.3,0.2-9.1,2.9-16,2.4C6.6,45,4.6,42.4,2.8,39.9z"/>
	<path class="st4" d="M3.2,40.5c0.1-0.1,0.3-0.2,0.3-0.5c0-0.3-0.1-0.5-0.1-0.5l0,0l0.1,0.1l0.1,0.1c0.1,0.1,0.2,0.2,0.3,0.3
		c0.2,0.2,0.4,0.3,0.6,0.5C5,40.8,5.4,41,6,41.2c1,0.4,2.1,0.6,3.2,0.7c2.3,0.2,4.5-0.1,6.8-0.6c1.1-0.2,2.3-0.5,3.3-0.9
		c0.5-0.2,1-0.4,1.5-0.7c0.5-0.3,0.8-0.6,1.5-1c0.7-0.4,1.4-0.5,2.1-0.5c0.7,0,1.4,0.1,2.1,0.4c0.6,0.3,1.1,0.6,1.5,0.8
		c0.4,0.1,0.9,0.2,1.5,0.1c1.1,0,1.8-0.5,2.8-1.3c0.5-0.4,1.2-0.7,1.9-0.8c0.3-0.1,0.7-0.1,1.1-0.1c0.4,0,0.7,0.1,1,0.2
		c1.3,0.4,2.3,0.9,3.4,1.3c1.1,0.4,2.2,0.8,3.2,1c1.1,0.2,2.2,0.2,3.2-0.1c1-0.2,2.1-0.7,3.1-1.2c2-1,3.9-2.4,5.5-4l0,0
		c0.3-0.3,0.8-0.3,1.1-0.1c0.2,0.2,0.3,0.5,0.2,0.8c-0.5,1.2-1.1,2.3-1.8,3.4c-0.7,1-1.6,2-2.6,2.8c-1,0.8-2.2,1.5-3.4,2
		c-1.3,0.4-2.5,0.6-3.8,0.8c-2.5,0.3-5,0.3-7.4,0.2c-2.4-0.1-4.9-0.3-7.2-0.3c-1,0-2.2,0.3-3.3,0.6c-1.2,0.3-2.3,0.6-3.6,0.9
		c-2.4,0.5-4.9,0.9-7.4,0.9c-1.3,0-2.5-0.1-3.8-0.3c-1.2-0.2-2.5-0.5-3.7-0.9c-1.2-0.5-2.4-1.2-3.4-2c-0.5-0.4-0.9-0.9-1.3-1.4
		c-0.2-0.3-0.4-0.5-0.6-0.8l-0.1-0.2l-0.1-0.1c0,0,0,0,0.1,0c0.1,0,0.2,0,0.4,0C3.1,40.8,3.2,40.7,3.2,40.5z M2.4,39.3
		c0.1,0,0.3,0,0.5,0c0.2,0,0.5,0.2,0.6,0.3c0.1,0.1,0.1,0.2,0.2,0.2L3.8,40l0.1,0.2c0.2,0.2,0.4,0.4,0.6,0.7
		c0.4,0.4,0.8,0.8,1.2,1.2c0.9,0.7,1.8,1.2,2.9,1.6c2.1,0.7,4.5,1,6.8,0.9c2.3,0,4.6-0.4,7-0.9c1.2-0.3,2.3-0.6,3.5-0.9
		c1.2-0.3,2.4-0.6,3.8-0.7c2.6,0,4.9,0.3,7.4,0.4c2.4,0.1,4.8,0.2,7.1-0.1c1.1-0.1,2.3-0.3,3.3-0.6c1-0.4,2-0.9,2.9-1.6
		c1.8-1.3,3.2-3.3,4.2-5.3l1.3,0.8l0,0c-1.7,1.8-3.7,3.2-5.9,4.4c-1.1,0.5-2.2,1-3.5,1.3c-1.3,0.3-2.6,0.3-3.8,0.1
		c-2.5-0.4-4.7-1.7-6.8-2.3c-1-0.3-1.9-0.1-2.8,0.5c-0.4,0.3-0.9,0.7-1.6,1c-0.6,0.3-1.3,0.5-2,0.5c-0.7,0-1.4,0-2-0.2
		c-0.7-0.2-1.2-0.6-1.7-0.8c-0.4-0.2-0.9-0.3-1.4-0.3c-0.5,0-1,0.1-1.3,0.3c-0.4,0.2-0.9,0.7-1.4,1c-0.6,0.3-1.1,0.6-1.7,0.8
		c-1.2,0.4-2.4,0.7-3.5,1c-2.3,0.5-4.8,0.8-7.3,0.6c-1.2-0.1-2.5-0.4-3.7-0.9c-0.6-0.2-1.2-0.5-1.7-0.9c-0.3-0.2-0.5-0.4-0.8-0.6
		c-0.1-0.1-0.2-0.2-0.4-0.3l-0.2-0.2l-0.1-0.1l0-0.1c-0.1-0.1-0.2-0.3-0.2-0.6C2.1,39.6,2.3,39.4,2.4,39.3z"/>
</g>
<g>
	<path class="st3" d="M7.7,28.5c0,0,1.1-9,5.7-9.8s13.9,6,13.9,6L26,19.2c0,0,3.8,2.1,5.8,3.3s5,1.4,5,1.4s-0.8-4.1-1.3-5
		s-2.3-2.1-2.3-2.1s4.6,3.1,10.8,1.6s8.5-4.6,8.5-4.6s-7-1.8-8.8-2.9s-4.5-1.6-4.6-4.4s1.5-5.8,1.5-5.8s-4.5,4.6-12.5,6.5
		S10.2,9.7,7.3,13.1C4.5,16.4,5.5,22,7.7,28.5z"/>
	<path class="st4" d="M7.6,27.7c-0.1,0-0.3,0-0.5,0.2C7,28,6.9,28.3,6.9,28.3l0-0.1l0-0.2l0-0.4c0-0.3,0-0.6,0.1-0.9
		c0.1-0.6,0.2-1.2,0.3-1.8c0.3-1.2,0.6-2.3,1.2-3.4c0.6-1.1,1.3-2.2,2.5-3.1c0.3-0.2,0.7-0.4,1-0.5c0.4-0.1,0.7-0.2,1.1-0.3
		c0.4,0,0.7-0.1,1.1-0.1c0.3,0,0.7,0.1,1,0.1C17.8,18,20,19,22,20.2c2,1.2,3.9,2.5,5.7,4l-1.2,0.8l-1.2-5.5
		c-0.1-0.4,0.2-0.8,0.6-0.9c0.2,0,0.4,0,0.5,0.1l0,0c1.8,0.9,3.5,1.9,5.2,2.8l0.6,0.4c0.2,0.1,0.4,0.2,0.6,0.3
		c0.4,0.2,0.8,0.3,1.3,0.5c0.9,0.3,1.8,0.5,2.7,0.6L36.1,24l0,0c-0.3-1.3-0.5-2.7-0.9-4c-0.1-0.3-0.2-0.7-0.3-0.8
		c-0.1-0.2-0.3-0.4-0.5-0.6c-0.4-0.4-1-0.9-1.5-1.2l0,0c-0.3-0.2-0.4-0.7-0.2-1c0.2-0.3,0.5-0.4,0.8-0.3l0.2,0.1
		c1.5,0.5,3.1,0.9,4.7,1.1c1.6,0.2,3.2,0.2,4.7-0.1c1.6-0.3,3.2-0.8,4.7-1.4c1.5-0.6,3-1.5,4.1-2.5l0,0l0.4,1.2
		C50.6,14,48.8,13.5,47,13c-0.9-0.3-1.8-0.6-2.7-1c-0.2-0.1-0.4-0.2-0.7-0.3l-0.3-0.2l-0.3-0.2c-0.4-0.2-0.8-0.4-1.2-0.6
		c-0.8-0.4-1.7-0.9-2.5-1.7c-0.4-0.4-0.7-0.9-0.8-1.5C38.4,7,38.4,6.5,38.4,6c0.1-2,0.7-3.8,1.6-5.6l0,0l1.2,0.9
		c-1.6,1.7-3.5,2.9-5.4,4c-2,1.1-4,2-6.2,2.6c-4.3,1.2-8.6,1.8-12.8,2.7c-2.1,0.4-4.2,0.9-6,1.7c-0.9,0.4-1.8,0.9-2.3,1.5
		c-0.6,0.6-1,1.4-1.2,2.3c-0.5,1.8-0.3,3.9,0.1,5.9c0.2,1,0.4,2.1,0.6,3.1l0.3,1.6c0,0.1,0.1,0.3,0.1,0.4c0,0,0,0.1-0.1,0.1
		C7.9,27.2,7.6,27.4,7.6,27.7z M7.7,29.2c-0.2-0.2-0.6-0.5-0.9-0.9c-0.1-0.2-0.3-0.5-0.4-0.7l-0.2-0.4c-0.2-0.5-0.4-1-0.6-1.6
		c-0.4-1.1-0.7-2.1-0.9-3.2c-0.2-1.1-0.4-2.2-0.4-3.4c0-1.2,0.1-2.4,0.4-3.6c0.3-1.2,0.9-2.4,1.9-3.3c1-1,2.1-1.5,3.1-2
		c2.2-0.9,4.3-1.3,6.5-1.8C20.6,7.5,25,7,29.1,6c4-1.1,8-3,11.1-5.8l0,0c0.3-0.3,0.8-0.2,1.1,0.1c0.2,0.2,0.2,0.6,0.1,0.8l0,0
		C40.6,2.6,40,4.4,39.9,6c0,0.8,0.1,1.5,0.6,2c0.5,0.5,1.2,0.9,2,1.3c0.4,0.2,0.8,0.4,1.3,0.6l0.3,0.2l0.3,0.1
		c0.2,0.1,0.4,0.2,0.6,0.3c0.8,0.3,1.7,0.6,2.5,0.9c1.7,0.5,3.5,1,5.2,1.5c0.4,0.1,0.6,0.5,0.5,0.9c0,0.1-0.1,0.2-0.1,0.2l0,0l0,0
		c-1.2,1.6-2.7,2.7-4.3,3.7c-1.6,0.9-3.4,1.5-5.2,1.9c-0.9,0.2-1.9,0.3-2.8,0.3c-1,0-1.9-0.1-2.8-0.3c-1.9-0.4-3.6-1.2-5.1-2.5
		l0.9-1.2l0,0c0.6,0.4,1.1,0.9,1.7,1.4c0.3,0.3,0.5,0.5,0.8,1c0.2,0.5,0.3,0.8,0.4,1.1c0.4,1.4,0.7,2.7,0.9,4.1l0,0
		c0.1,0.4-0.2,0.8-0.6,0.9c-0.1,0-0.1,0-0.2,0l0,0c-1.1-0.1-2-0.2-3.1-0.5c-0.5-0.1-1-0.3-1.5-0.5c-0.2-0.1-0.5-0.2-0.7-0.4
		l-0.7-0.4c-1.7-1-3.4-1.9-5.1-3l0,0l1.1-0.8l1.3,5.5c0.1,0.4-0.2,0.8-0.6,0.9c-0.2,0-0.4,0-0.6-0.1l-0.1,0
		c-1.9-1.2-3.9-2.3-5.9-3.2c-2-1-4.1-1.8-6-2.1c-0.2,0-0.5-0.1-0.7-0.1l-0.6,0c-0.2,0.1-0.4,0.1-0.5,0.2c-0.2,0.1-0.3,0.2-0.5,0.3
		c-0.7,0.4-1.3,1.3-1.8,2.1c-0.5,0.9-0.9,1.9-1.3,2.9C9.2,26,9,26.5,8.9,27l-0.2,0.8l-0.1,0.4l-0.1,0.2l0,0.1c0,0.1-0.1,0.3-0.2,0.5
		C8.1,29.1,7.9,29.2,7.7,29.2z"/>
</g>
<g>
	<path class="st4" d="M37.2,13.6c1.2,0.4,2.4,0.7,3.6,0.9c1.2,0.1,2.4,0.1,3.6,0c1.2-0.1,2.4-0.4,3.6-0.6c1.2-0.2,2.5-0.5,3.7-0.7
		c0.4-0.1,0.8,0.2,0.8,0.7c0,0.4-0.2,0.7-0.5,0.8c-1.2,0.4-2.4,0.8-3.7,1.1c-1.3,0.3-2.6,0.5-3.9,0.6c-1.3,0.1-2.7,0-4-0.4
		c-1.3-0.4-2.5-0.9-3.6-1.7c-0.1-0.1-0.2-0.3-0.1-0.4C36.9,13.6,37.1,13.6,37.2,13.6z"/>
</g>
<g>
	<path class="st4" d="M42.8,30.7c0.1-1.2-0.4-2.4-1.2-3.3c-0.8-0.9-2-1.5-3.3-1.5c-1.3,0-2.5,0.5-3.4,1.4c-0.9,0.9-1.4,2.1-1.3,3.4
		c0,1.2,0.6,2.4,1.5,3.2c0.9,0.8,2.1,1.2,3.2,1.2c1.2,0,2.2-0.6,3.1-1.3C42.2,33,42.8,31.9,42.8,30.7z M44.6,30.7
		c0.1,1.6-0.5,3.3-1.7,4.5c-1.2,1.2-2.9,1.8-4.5,1.8c-1.7,0-3.3-0.8-4.4-2c-1.1-1.2-1.7-2.8-1.7-4.4c0.1-1.6,0.7-3.1,1.8-4.2
		c1.1-1.1,2.6-1.7,4.2-1.7c1.6,0,3.1,0.6,4.3,1.6C43.8,27.4,44.6,29,44.6,30.7z"/>
</g>
<g>
	<path class="st4" d="M22.6,31.8c0.1-1.3-0.4-2.6-1.3-3.6c-0.9-1-2.2-1.6-3.6-1.5c-1.4,0-2.7,0.6-3.6,1.6c-0.9,1-1.4,2.3-1.3,3.6
		c0.1,1.3,0.6,2.5,1.6,3.4c0.9,0.8,2.1,1.3,3.4,1.3c1.2,0,2.4-0.5,3.3-1.3C22,34.3,22.6,33.1,22.6,31.8z M24.3,31.8
		c0.1,1.7-0.6,3.5-1.8,4.8c-1.2,1.3-3,2.1-4.8,2c-1.8,0-3.6-0.8-4.8-2.1c-1.2-1.3-1.9-3-1.8-4.8c0-1.7,0.8-3.4,2-4.6
		c1.2-1.2,2.9-1.8,4.6-1.8c1.7,0,3.3,0.7,4.6,1.8C23.5,28.4,24.3,30.1,24.3,31.8z"/>
</g>
<path class="st7" d="M23.1,31.3c2.9-2.1,6.2-2.2,9.9-1.1"/>
<g>
	<path class="st4" d="M15,31.1c0.8-0.6,1.7-1.1,2.7-1.1c1-0.1,1.9,0.2,2.7,0.7c0.2,0.1,0.3,0.4,0.2,0.6c-0.1,0.2-0.3,0.3-0.5,0.2
		l0,0c-0.7-0.2-1.4-0.2-2,0c-0.6,0.2-1,0.7-1.4,1.2c-0.4,0.5-1.1,0.6-1.6,0.3c-0.5-0.4-0.6-1.1-0.3-1.6C14.8,31.3,14.9,31.2,15,31.1
		L15,31.1z"/>
</g>
<g>
	<path class="st4" d="M35.3,29.8c0.7-0.5,1.6-1,2.6-1c1,0,2,0.3,2.8,0.8l0,0c0.5,0.3,0.7,1,0.4,1.6c-0.3,0.5-1,0.7-1.6,0.4
		c-0.1,0-0.1-0.1-0.2-0.2c-0.5-0.5-1-0.8-1.6-0.9c-0.6-0.1-1.3,0-1.9,0.3l0,0c-0.3,0.1-0.7,0-0.8-0.3C35,30.3,35,30,35.3,29.8z"/>
</g>
</svg>
