<?xml version="1.0" encoding="utf-8"?>
<!-- Generator: Adobe Illustrator 22.0.1, SVG Export Plug-In . SVG Version: 6.00 Build 0)  -->
<svg version="1.1" id="Layer_1" xmlns="http://www.w3.org/2000/svg" xmlns:xlink="http://www.w3.org/1999/xlink" x="0px" y="0px"
	 viewBox="0 0 48 48" style="enable-background:new 0 0 48 48;" xml:space="preserve">
<style type="text/css">
	.st0{display:none;fill:none;stroke:#444140;stroke-miterlimit:10;}
	.st1{display:none;fill:#FFAE3C;stroke:#FFAE3C;stroke-width:1.5;stroke-linejoin:round;stroke-miterlimit:10;}
	.st2{fill:#C6C2B5;}
	.st3{fill:#FFFFFF;}
</style>
<line class="st0" x1="-30.5" y1="421.2" x2="-21.5" y2="421.2"/>
<line class="st0" x1="66.1" y1="421.2" x2="75.1" y2="421.2"/>
<line class="st1" x1="17.4" y1="390.7" x2="15.8" y2="386.5"/>
<line class="st1" x1="30.9" y1="390.4" x2="32.7" y2="385.6"/>
<g>
	<path class="st2" d="M48,24c0,13.3-10.7,24-24,24C10.7,48,0,37.3,0,24C0,10.7,10.7,0,24,0C37.3,0,48,10.7,48,24z"/>
	<g>
		<path class="st3" d="M33.2,9H14.8C11.6,9,9,11.6,9,14.8v6.1v12.3c0,3.2,2.6,5.8,5.8,5.8h18.4c3.2,0,5.8-2.6,5.8-5.8V20.9v-6.1
			C39,11.6,36.4,9,33.2,9z M34.9,12.5l0.7,0v0.7v4.4l-5.1,0l0-5.1L34.9,12.5z M19.7,20.9c1-1.3,2.5-2.2,4.3-2.2s3.3,0.9,4.3,2.2
			c0.6,0.9,1,1.9,1,3.1c0,2.9-2.4,5.3-5.3,5.3c-2.9,0-5.3-2.4-5.3-5.3C18.7,22.9,19.1,21.8,19.7,20.9z M36.1,33.2
			c0,1.6-1.3,2.9-2.9,2.9H14.8c-1.6,0-2.9-1.3-2.9-2.9V20.9h4.5c-0.4,1-0.6,2-0.6,3.1c0,4.5,3.7,8.2,8.2,8.2c4.5,0,8.2-3.7,8.2-8.2
			c0-1.1-0.2-2.1-0.6-3.1h4.5V33.2z"/>
	</g>
</g>
</svg>
