<?xml version="1.0" encoding="utf-8"?>
<!-- Generator: Adobe Illustrator 22.0.1, SVG Export Plug-In . SVG Version: 6.00 Build 0)  -->
<svg version="1.1" id="Layer_1" xmlns="http://www.w3.org/2000/svg" xmlns:xlink="http://www.w3.org/1999/xlink" x="0px" y="0px"
	 viewBox="0 0 48 48" style="enable-background:new 0 0 48 48;" xml:space="preserve">
<style type="text/css">
	.st0{display:none;fill:none;stroke:#444140;stroke-miterlimit:10;}
	.st1{display:none;fill:#FFAE3C;stroke:#FFAE3C;stroke-width:1.5;stroke-linejoin:round;stroke-miterlimit:10;}
	.st2{fill:#C6C2B5;}
	.st3{fill:#FFFFFF;}
</style>
<line class="st0" x1="-30" y1="420.5" x2="-21" y2="420.5"/>
<line class="st0" x1="66.6" y1="420.5" x2="75.6" y2="420.5"/>
<line class="st1" x1="17.9" y1="390" x2="16.4" y2="385.9"/>
<line class="st1" x1="31.4" y1="389.8" x2="33.2" y2="384.9"/>
<g>
	<path class="st2" d="M48,24c0,13.3-10.7,24-24,24C10.7,48,0,37.3,0,24C0,10.7,10.7,0,24,0C37.3,0,48,10.7,48,24z"/>
	<g>
		<path class="st3" d="M20,39h6c0,0,0-8.3,0-15h4.5l0.5-6h-4.8v-2.4c0-1.2,0.8-1.4,1.3-1.4c0.5,0,3.4,0,3.4,0V9l-4.6,0
			c-5.1,0-6.3,3.8-6.3,6.3V18h-3v6h3C20,30.8,20,39,20,39z"/>
	</g>
</g>
</svg>
