<?xml version="1.0" encoding="utf-8"?>
<!-- Generator: Adobe Illustrator 23.0.4, SVG Export Plug-In . SVG Version: 6.00 Build 0)  -->
<svg version="1.1" id="Layer_1" xmlns="http://www.w3.org/2000/svg" xmlns:xlink="http://www.w3.org/1999/xlink" x="0px" y="0px"
	 viewBox="0 0 68 85.4" style="enable-background:new 0 0 68 85.4;" xml:space="preserve">
<style type="text/css">
	.st0{fill:#F2F0E9;stroke:#444140;stroke-width:1.5;stroke-linejoin:round;stroke-miterlimit:10;}
	.st1{fill:#F2F0E9;}
	.st2{fill:#444140;}
	.st3{fill:#F5EFE5;stroke:#444140;stroke-width:1.1269;stroke-miterlimit:10;}
	.st4{fill:#F97F00;}
	.st5{fill:none;stroke:#444140;stroke-width:1.5;stroke-miterlimit:10;}
	.st6{fill:#F5EFE5;stroke:#444140;stroke-width:1.5;stroke-linecap:round;stroke-linejoin:round;stroke-miterlimit:10;}
	.st7{fill:#F5EFE5;stroke:#444140;stroke-width:2;stroke-linejoin:round;stroke-miterlimit:10;}
	.st8{fill:none;stroke:#444140;stroke-linejoin:round;stroke-miterlimit:10;}
</style>
<g>
	<path class="st0" d="M12.7,49.6c0,0-1.9-1.7-3-0.8s-0.8,3.6,0.6,4.7s3.2,0.1,3.2,0.1L12.7,49.6z"/>
	<path class="st0" d="M51.8,45c0,0,1.7-1.6,3.2-0.9c1.6,0.8,1.5,3.8,0.3,4.8S52,50.3,52,50.3L51.8,45z"/>
</g>
<g>
	<path class="st1" d="M53,58.5c0,0-0.6-5.6-0.5-9.3s0.3-7.9-0.6-10.4s-4.4-6.6-4.4-6.6L34,29.5l-14.8,2.3l-7.1,6.5l0.1,6.5
		c0,0,0.5,2.6,0.8,5.9s0.4,9.4,0.4,9.4L53,58.5z"/>
	<path class="st2" d="M52.4,58c-0.1,0.1-0.2,0.3-0.2,0.4c0,0.1,0,0.1,0,0.1l0,0v-0.1v-0.2l-0.1-0.4L52,56.9l-0.2-1.7
		c-0.1-1.2-0.3-2.3-0.3-3.5c-0.1-1.2-0.1-2.4-0.1-3.5s0-2.3,0-3.4c-0.1-2.2-0.2-4.5-1-6.2c-0.9-1.9-2.2-3.8-3.4-5.8l0,0l0.4,0.2
		l-13.5-2.7h0.3l-14.7,2.2l0.4-0.2l-7.1,6.5l0,0l0.2-0.6c0.2,2.2,0.3,4.3,0.4,6.5v-0.2c0.3,1.3,0.5,2.6,0.6,3.9
		c0.2,1.3,0.3,2.6,0.3,3.9c0.1,2.6,0.2,5.1,0,7.7l0,0l-0.8-0.7C26.3,58.8,39.3,58.4,52.4,58z M53.5,59c-13.3,0.6-26.8,1.3-40.2,1.8
		h-0.7l0-0.8l0,0c-0.5-2.5-0.6-5.1-0.6-7.6c0-1.3-0.1-2.5-0.2-3.8c-0.1-1.2-0.3-2.5-0.5-3.7v-0.1v-0.1c0-2.2,0-4.3,0.1-6.5v-0.4
		l0.2-0.2l0,0l7.1-6.5l0.2-0.2h0.2l14.7-2.2h0.1H34l13.5,2.7h0.2l0.2,0.2l0,0c1.8,1.6,3.3,3.3,4.5,5.6c0.3,0.6,0.6,1.2,0.7,1.9
		c0.2,0.6,0.3,1.3,0.3,1.9c0.1,1.2,0.2,2.4,0.2,3.6c0,2.4-0.2,4.7-0.2,6.9c0,1.1,0,2.3,0,3.4l0.1,1.7v0.9v0.4v0.2v0.1v0.1
		C53.7,58.7,53.6,58.9,53.5,59z"/>
</g>
<path class="st3" d="M28.3,14.7"/>
<g>
	<path class="st4" d="M29.6,8.5l-0.4,6.1l-4.3-5.3c0,0,0.8,0.2,2.6,0.4c0.1,0,0.1,0,0.2,0C29,9.7,29.6,8.5,29.6,8.5 M29.6,7.5
		c-0.4,0-0.7,0.2-0.9,0.5c0,0-0.4,0.7-1,0.7h-0.1c-1.7-0.1-2.4-0.3-2.4-0.3c-0.1,0-0.2,0-0.3,0c-0.3,0-0.6,0.2-0.8,0.5
		c-0.2,0.4-0.2,0.8,0.1,1.2l4.3,5.3c0.2,0.2,0.5,0.4,0.8,0.4c0.1,0,0.2,0,0.3,0c0.4-0.1,0.7-0.5,0.7-0.9l0.4-6.1
		c0-0.5-0.3-0.9-0.7-1C29.8,7.5,29.7,7.5,29.6,7.5L29.6,7.5z"/>
</g>
<path class="st5" d="M26.5,0.9c11.4-2.1,6.5,13.6,2.4,14.3C24.6,16.1,15,3.1,26.5,0.9z"/>
<polyline class="st6" points="31.4,15 26.5,16.2 31.7,16.5 27.3,18.8 31.7,18.7 "/>
<g>
	<path class="st4" d="M52.8,13.8c0,0,0.4,0.4,1.4,1.2c0.3,0.2,0.6,0.3,0.9,0.3c0.5,0,0.8-0.2,0.8-0.2l-2.7,3.5L52.8,13.8 M52.8,13
		c-0.1,0-0.2,0-0.3,0.1c-0.3,0.1-0.5,0.5-0.5,0.8l0.5,4.9c0,0.3,0.3,0.6,0.6,0.7c0.1,0,0.1,0,0.2,0c0.2,0,0.5-0.1,0.6-0.3l2.7-3.5
		c0.2-0.3,0.2-0.7,0-1c-0.2-0.2-0.4-0.3-0.6-0.3c-0.1,0-0.3,0-0.4,0.1l0,0c0,0-0.2,0.1-0.4,0.1s-0.3,0-0.4-0.1
		c-1-0.7-1.3-1.1-1.3-1.1C53.2,13.1,53,13,52.8,13L52.8,13z"/>
</g>
<path class="st5" d="M57,9.4c7.7,3.2-1.4,10.7-4.1,9.6C50,17.8,49.3,6.2,57,9.4z"/>
<polyline class="st6" points="54.5,19.8 51.1,18.6 54,20.8 50.2,20.5 53,22.2 "/>
<g>
	<path class="st4" d="M6.9,17.4l1.5,4l-4.1-2.2c0,0,0.5-0.1,1.7-0.5C6.9,18.4,6.9,17.4,6.9,17.4 M6.9,16.7L6.9,16.7
		c-0.4,0.1-0.7,0.3-0.7,0.7c0,0,0,0.6-0.5,0.7c-1,0.4-1.5,0.5-1.5,0.5c-0.3,0-0.5,0.3-0.6,0.6s0.1,0.6,0.4,0.7l4.1,2.2
		c0.1,0.1,0.2,0.1,0.3,0.1c0.2,0,0.3-0.1,0.5-0.2c0.2-0.2,0.3-0.5,0.2-0.8l-1.5-4C7.4,16.9,7.2,16.7,6.9,16.7L6.9,16.7z"/>
</g>
<path class="st5" d="M2.9,13.5c6.2-4.6,7.8,6.8,5.6,8.4C6.1,23.6-3.4,18.1,2.9,13.5z"/>
<polyline class="st6" points="9.9,21 7.3,23.2 10.4,21.9 8.6,24.9 11.2,23.6 "/>
<g>
	<path class="st1" d="M5.2,76.3c0,0,10.3,7.8,28.3,7.5s28.7-12,28.7-12S58,68.5,55.7,65s-3-7.5-3-7.5h-19L13.3,60
		c0,0-0.6,5.2-2.8,8.9S5.2,76.3,5.2,76.3z"/>
	<path class="st2" d="M5.9,76.2c0-0.1,0-0.3-0.1-0.4c0,0,0,0-0.1-0.1l0,0l0,0L6,75.9l0.4,0.2c0.3,0.2,0.5,0.3,0.8,0.4
		c0.6,0.3,1.1,0.6,1.7,0.8c1.1,0.5,2.3,1,3.5,1.4c2.4,0.8,4.8,1.5,7.2,2.1c4.9,1,9.9,1.5,14.9,1.2c4.9-0.3,9.8-1.3,14.4-3.2
		c4.6-1.8,9-4.4,12.8-7.6l0,0l0.1,1.1c-1.2-1-2.3-2-3.3-3c-1-1.1-2.1-2.2-2.9-3.4c-0.9-1.2-1.6-2.6-2.2-4c-0.6-1.4-1-2.8-1.3-4.4
		l0.7,0.6h-19h0.1l-20.3,2.6l0,0l0.7-0.7c-0.2,1.6-0.5,3.1-0.9,4.7c-0.4,1.5-1,3-1.8,4.5c-0.8,1.4-1.7,2.7-2.6,3.9
		c-0.5,0.6-1,1.2-1.4,1.8l-0.8,0.9l-0.4,0.4l-0.2,0.2l-0.1,0.1v0.1l0,0c0,0,0.1-0.1,0.1-0.2C5.9,76.5,5.9,76.3,5.9,76.2z M4.4,76.4
		c0-0.1,0-0.3,0.1-0.4c0-0.1,0.1-0.1,0.1-0.2l0,0v-0.1l0.1-0.1L5,75.3l0.4-0.4L6,74c0.5-0.6,0.9-1.2,1.4-1.8
		c0.9-1.2,1.7-2.5,2.5-3.8c0.7-1.3,1.3-2.6,1.7-4.1c0.4-1.4,0.8-2.9,1-4.4l0,0c0.1-0.3,0.3-0.6,0.6-0.6l0,0l20.3-2.6h0.1h19
		c0.4,0,0.7,0.3,0.7,0.6l0,0c0.3,1.3,0.7,2.7,1.2,4s1.2,2.6,2,3.7s1.8,2.2,2.8,3.2s2.1,2,3.2,2.9c0.3,0.3,0.4,0.7,0.1,1.1l0,0l0,0
		l0,0c-1.7,2.1-3.7,3.8-5.8,5.4s-4.4,2.9-6.8,4c-4.8,2.3-10.1,3.4-15.4,3.6S24,84.8,18.9,83.5c-2.5-0.7-5-1.6-7.4-2.7
		C10.3,80.2,9.1,79.7,8,79c-0.6-0.3-1.1-0.7-1.7-1c-0.3-0.2-0.5-0.4-0.8-0.6l-0.4-0.3L4.9,77l-0.2-0.2C4.6,76.7,4.5,76.5,4.4,76.4z"
		/>
</g>
<g>
	<path class="st2" d="M12.6,79.7c0.2-0.6,0.5-0.9,0.9-1.3c0.4-0.3,0.8-0.6,1.2-0.9c0.8-0.6,1.5-1.3,2.3-2c1.5-1.4,2.8-2.9,4-4.6
		c0.1-0.2,0.3-0.2,0.5-0.1c0.1,0.1,0.2,0.3,0.1,0.4c-0.9,1.9-2,3.7-3.3,5.4c-0.6,0.8-1.3,1.7-2.1,2.4c-0.4,0.4-0.8,0.7-1.2,1.1
		c-0.4,0.3-0.9,0.6-1.5,0.7c-0.5,0-0.9-0.4-0.9-0.9C12.5,79.9,12.5,79.8,12.6,79.7L12.6,79.7z"/>
</g>
<g>
	<path class="st2" d="M22.1,82.1c-0.3-1.3,0.4-1.7,0.9-2.3c0.5-0.6,0.9-1.3,1.4-1.9c0.9-1.3,1.7-2.7,2.6-4.2
		c0.1-0.2,0.3-0.2,0.4-0.1s0.2,0.2,0.2,0.3c0,1.7-0.4,3.4-1,5.1c-0.3,0.8-0.7,1.6-1.1,2.4c-0.5,0.7-0.7,1.7-2,1.7
		C22.7,83.1,22.2,82.7,22.1,82.1L22.1,82.1z"/>
</g>
<g>
	<path class="st2" d="M33.5,83.4c-0.5-0.5-0.5-0.8-0.4-1.1c0.1-0.3,0.2-0.6,0.3-0.8c0.1-0.6,0.3-1.1,0.4-1.7
		c0.3-1.2,0.5-2.3,0.7-3.6l0,0c0.1-0.3,0.4-0.5,0.7-0.4c0.2,0,0.3,0.2,0.4,0.3c0.5,1.3,0.7,2.6,0.7,4c0,0.7-0.1,1.4-0.2,2
		c-0.1,0.3-0.1,0.7-0.2,1c-0.1,0.3-0.2,0.6-1,0.8C34.4,83.9,33.9,83.8,33.5,83.4L33.5,83.4z"/>
</g>
<g>
	<path class="st2" d="M46.5,81c-0.9,0.1-1.1-0.4-1.3-0.8s-0.4-0.8-0.5-1.2c-0.3-0.8-0.6-1.6-0.7-2.5c-0.4-1.7-0.5-3.4-0.4-5
		c0-0.2,0.2-0.4,0.4-0.4s0.3,0.1,0.4,0.3c0.7,1.5,1.2,3,1.9,4.4c0.3,0.7,0.7,1.4,1,2.1c0.2,0.3,0.4,0.7,0.6,1c0.2,0.3,0.5,0.5,0,1.3
		l-0.1,0.1C47.5,80.7,47,81,46.5,81z"/>
</g>
<g>
	<path class="st2" d="M56.2,77.2c-1.8-0.9-3.3-2.2-4.6-3.6s-2.4-3-3.3-4.6c-0.1-0.2-0.1-0.5,0.1-0.6c0.2-0.1,0.4-0.1,0.5,0.1
		c2.3,2.8,5.2,5.2,8.4,6.2c0.7,0.2,1.1,1,0.9,1.7c-0.2,0.7-1,1.1-1.7,0.9C56.3,77.3,56.3,77.2,56.2,77.2L56.2,77.2z"/>
</g>
<g>
	<path class="st1" d="M26.3,60.4c0,0,3.7,9.8,8.4,9.9c7,0.1,7.5-11.2,7.5-11.2l-2.3-1.4l-10.6,0.5L26.3,60.4z"/>
	<path class="st2" d="M27,60.6c0-0.1,0.1-0.3,0-0.4c0-0.1,0,0,0,0l0,0v0.1l0.1,0.2l0.2,0.4l0.4,0.8c0.3,0.5,0.5,1,0.8,1.5
		c0.5,1,1.2,2,1.8,2.9c1.3,1.8,3,3.5,4.9,3.2c1-0.1,1.9-0.5,2.7-1.1c0.8-0.7,1.4-1.6,1.8-2.6c0.9-2,1.5-4.3,1.7-6.5l0,0l0.4,0.7
		l-2.3-1.4l0.4,0.1L29.3,59l0.4-0.1C28.8,59.5,27.9,60.1,27,60.6z M25.5,60.2c1-0.8,2.1-1.7,3.2-2.5c0.1-0.1,0.3-0.1,0.4-0.1
		L39.8,57c0.1,0,0.3,0,0.4,0.1l2.3,1.4c0.2,0.1,0.4,0.4,0.4,0.7l0,0c-0.1,2.5-0.5,4.9-1.6,7.2c-0.5,1.2-1.2,2.3-2.2,3.2
		c-0.5,0.5-1.1,0.8-1.7,1.1c-0.6,0.3-1.3,0.4-2,0.5s-1.5,0-2.1-0.2c-0.7-0.2-1.3-0.6-1.8-1c-1.1-0.8-1.9-1.8-2.6-2.8
		S27.6,65.1,27,64c-0.3-0.5-0.5-1.1-0.8-1.7l-0.3-0.8l-0.2-0.4l-0.1-0.2v-0.1v-0.1v-0.1C25.5,60.5,25.5,60.3,25.5,60.2z"/>
</g>
<path class="st7" d="M31.3,68.6c0,0,2.1-1.4,4-1.5s4.3,1,4.3,1"/>
<g>
	<path class="st2" d="M28.2,63.5c-0.1,0-0.3-0.1-0.4,0c-0.1,0-0.2,0.1-0.1,0.1l0,0l0,0h0.1h0.1L28.2,63.5c0.1-0.1,0.2-0.2,0.4-0.2
		c0.3-0.1,0.6-0.1,0.9-0.2c0.6-0.1,1.2-0.1,1.7-0.2c1.2-0.1,2.3-0.2,3.5-0.2c2.3,0,4.6,0.2,6.9,0.4l0,0l-0.9,0.6
		c0.4-2.1,0.7-4.4,0.9-6.6l0.8,0.8l-7,0.4c-1.2,0.1-2.3,0.1-3.5,0.2L28.5,59l0.3-0.1l-2.5,1.4l0.3-1C27.2,60.7,27.7,62,28.2,63.5z
		 M27.8,64.9c-0.9-1.6-1.8-3.3-2.5-5c-0.2-0.4,0-0.8,0.3-1l2.5-1.4c0.1-0.1,0.2-0.1,0.3-0.1l3.5-0.4c1.2-0.1,2.3-0.1,3.5-0.2l7-0.4
		l0,0c0.4,0,0.8,0.3,0.8,0.7v0.1c-0.3,2.2-0.5,4.5-0.9,6.7l0,0c-0.1,0.4-0.5,0.7-0.8,0.6l0,0l0,0c-1-0.3-2.2-0.6-3.3-0.8
		s-2.2-0.3-3.3-0.3s-2.2,0-3.3,0.2c-0.5,0.1-1.1,0.2-1.6,0.4c-0.3,0.1-0.5,0.2-0.7,0.3c-0.1,0.1-0.2,0.1-0.3,0.2
		c-0.1,0-0.1,0.1-0.2,0.1h-0.1l0,0l0,0l0,0c0,0-0.1,0.1-0.2,0.1C28.1,65,27.9,65,27.8,64.9z"/>
</g>
<line class="st8" x1="30" y1="63.8" x2="29" y2="58.8"/>
<g>
	<path class="st4" d="M34.3,64c-0.2,0-0.4-0.2-0.4-0.4L33.8,58c0-0.1,0.1-0.2,0.1-0.3c0.1-0.1,0.2-0.1,0.3-0.1h0.1l4.7,0.9
		c0.2,0,0.4,0.2,0.3,0.4L39.1,64c0,0.1-0.1,0.2-0.1,0.3c-0.1,0.1-0.2,0.1-0.3,0.1C38.6,64.4,34.3,64,34.3,64z"/>
	<path class="st2" d="M34.2,58l4.7,0.9L38.6,64l-4.3-0.4L34.2,58 M34.2,57.1c-0.2,0-0.4,0.1-0.5,0.2c-0.2,0.2-0.3,0.4-0.3,0.7
		l0.1,5.6c0,0.4,0.3,0.8,0.8,0.8l4.3,0.4c0,0,0,0,0.1,0c0.2,0,0.4-0.1,0.6-0.2c0.2-0.1,0.3-0.4,0.3-0.6l0.3-5.1
		c0-0.4-0.3-0.8-0.7-0.9l-4.7-0.9C34.3,57.1,34.3,57.1,34.2,57.1L34.2,57.1z"/>
</g>
<g>
	<path class="st2" d="M33.8,48.2c0.6,0.5,1.1,1,1.6,1.5c0.2,0.3,0.5,0.6,0.7,0.9c0.2,0.3,0.4,0.7,0.5,1.3c0,0.3-0.1,0.7-0.2,0.9
		c-0.1,0.2-0.3,0.4-0.4,0.6c-0.3,0.3-0.6,0.6-0.9,0.9c-0.7,0.4-1.3,0.8-2.1,0.8c-0.4,0-0.8-0.3-0.9-0.7c0-0.3,0.1-0.5,0.3-0.7h0.1
		c0.5-0.4,1.1-0.7,1.7-1c0.3-0.1,0.6-0.3,0.8-0.4c0.2-0.1,0.4-0.3,0.4-0.3c0-0.1-0.1-0.4-0.2-0.7c-0.1-0.3-0.3-0.6-0.5-0.8
		c-0.4-0.5-0.9-1.1-1.4-1.5l0,0c-0.2-0.2-0.2-0.5,0-0.7C33.3,48.1,33.6,48,33.8,48.2z"/>
</g>
<g>
	<path class="st2" d="M24.7,47.9c0.1,1.2-0.9,2.6-2.3,2.6c-0.7,0.1-1.4-0.2-1.9-0.7s-0.8-1.2-0.7-1.9c0-0.7,0.4-1.4,0.9-1.8
		c0.5-0.4,1.2-0.6,1.8-0.6C23.6,45.6,24.6,46.6,24.7,47.9z M23.7,47.9c0-0.4-0.1-0.8-0.4-1s-0.7-0.4-1-0.3c-0.7,0.1-1.2,0.8-1.1,1.3
		c0.1,0.6,0.5,1,1.1,1.1c0.3,0,0.6,0,0.9-0.2C23.5,48.5,23.6,48.2,23.7,47.9z"/>
</g>
<g>
	<path class="st2" d="M43.3,47.5c0.1,1.2-0.9,2.6-2.3,2.6c-0.7,0.1-1.4-0.2-1.9-0.7s-0.8-1.2-0.7-1.9c0-0.7,0.4-1.4,0.9-1.8
		c0.5-0.4,1.2-0.6,1.8-0.6C42.2,45.2,43.2,46.3,43.3,47.5z M42.3,47.5c0-0.4-0.1-0.8-0.4-1c-0.3-0.2-0.7-0.4-1-0.3
		c-0.7,0.1-1.2,0.8-1.1,1.3c0.1,0.6,0.5,1,1.1,1.1c0.3,0,0.6,0,0.9-0.2C42,48.2,42.2,47.9,42.3,47.5z"/>
</g>
<g>
	<path class="st2" d="M17,45c0.6-1,1.4-1.7,2.4-2.2c0.9-0.5,2-0.9,3.1-1c0.2,0,0.3,0.1,0.3,0.3c0,0.1,0,0.2-0.1,0.2
		c-0.8,0.7-1.5,1.4-2.3,2c-0.7,0.6-1.4,1.2-2.3,1.7l0,0c-0.4,0.2-0.8,0.1-1.1-0.2C16.8,45.6,16.8,45.2,17,45z"/>
</g>
<g>
	<path class="st2" d="M18.5,54.3c0.5-0.7,1.2-1.2,2.1-1.5s1.8-0.3,2.6,0c0.1,0,0.2,0.2,0.2,0.4c0,0.1-0.1,0.1-0.1,0.2
		c-0.7,0.5-1.4,0.8-1.9,1.2c-0.6,0.4-1.1,0.8-1.9,1l0,0c-0.4,0.1-0.9-0.1-1-0.5C18.3,54.8,18.3,54.5,18.5,54.3z"/>
</g>
<g>
	<path class="st2" d="M46.6,54.3c-0.7-0.3-1.3-0.7-1.9-1c-0.6-0.4-1.2-0.7-1.9-1.2c-0.1-0.1-0.2-0.3-0.1-0.4c0-0.1,0.1-0.1,0.2-0.1
		c0.8-0.3,1.7-0.3,2.6,0c0.9,0.3,1.6,0.8,2.1,1.5c0.2,0.4,0.2,0.8-0.2,1.1C47.1,54.4,46.9,54.4,46.6,54.3L46.6,54.3z"/>
</g>
<g>
	<path class="st2" d="M41.3,42c1,0.3,2,0.7,2.9,1.2c0.5,0.2,0.9,0.5,1.4,0.8s0.9,0.6,1.3,1c0.4,0.4,0.4,1,0,1.4s-1,0.4-1.4,0l0,0
		c-0.3-0.3-0.7-0.6-1.1-1c-0.4-0.3-0.8-0.6-1.2-0.9c-0.8-0.6-1.6-1.1-2.5-1.7c-0.2-0.2-0.3-0.5-0.1-0.7C40.9,42,41.1,42,41.3,42z"/>
</g>
<g>
	<path class="st1" d="M7.2,56c0,0,2.8,4,11.5,2.6s7-3.2,9.7-3.4c2.7-0.3,2.6,1.4,5.3,1.3s2.9-2,5.4-2.2c2.6-0.2,7,3.8,12.1,2.3
		c5.1-1.6,8.4-5.3,8.4-5.3s-2.4,6.4-8.5,7.8c-5.9,1.3-13.9,0-17.2,0.2s-9.1,2.9-16,2.4C11,61,9,58.5,7.2,56z"/>
	<path class="st2" d="M7.7,56.6C7.8,56.5,8,56.4,8,56.1s-0.1-0.5-0.1-0.5l0,0L8,55.7v0.1C8.1,55.9,8.2,56,8.3,56
		c0.2,0.2,0.4,0.3,0.6,0.5c0.5,0.3,0.9,0.6,1.4,0.7c1,0.4,2.1,0.6,3.2,0.7c2.3,0.2,4.5-0.1,6.8-0.6c1.1-0.2,2.3-0.5,3.3-0.9
		c0.5-0.2,1-0.4,1.5-0.7s0.8-0.6,1.5-1s1.4-0.5,2.1-0.5s1.4,0.1,2.1,0.4c0.6,0.3,1.1,0.6,1.5,0.8c0.4,0.1,0.9,0.2,1.5,0.1
		c1.1,0,1.8-0.5,2.8-1.3c0.5-0.4,1.2-0.7,1.9-0.8c0.3-0.1,0.7-0.1,1.1-0.1c0.4,0,0.7,0.1,1,0.2c1.3,0.4,2.3,0.9,3.4,1.3
		c1.1,0.4,2.2,0.8,3.2,1c1.1,0.2,2.2,0.2,3.2-0.1c1-0.2,2.1-0.7,3.1-1.2c2-1,3.9-2.4,5.5-4l0,0c0.3-0.3,0.8-0.3,1.1-0.1
		c0.2,0.2,0.3,0.5,0.2,0.8c-0.5,1.2-1.1,2.3-1.8,3.4c-0.7,1-1.6,2-2.6,2.8s-2.2,1.5-3.4,2c-1.3,0.4-2.5,0.6-3.8,0.8
		c-2.5,0.3-5,0.3-7.4,0.2s-4.9-0.3-7.2-0.3c-1,0-2.2,0.3-3.3,0.6c-1.2,0.3-2.3,0.6-3.6,0.9c-2.4,0.5-4.9,0.9-7.4,0.9
		c-1.3,0-2.5-0.1-3.8-0.3c-1.2-0.2-2.5-0.5-3.7-0.9c-1.2-0.5-2.4-1.2-3.4-2c-0.5-0.4-0.9-0.9-1.3-1.4c-0.2-0.3-0.4-0.5-0.6-0.8L7,57
		l-0.1-0.1c0,0,0,0,0.1,0s0.2,0,0.4,0C7.5,56.8,7.6,56.7,7.7,56.6z M6.8,55.3c0.1,0,0.3,0,0.5,0s0.5,0.2,0.6,0.3s0.1,0.2,0.2,0.2
		L8.2,56l0.1,0.2c0.2,0.2,0.4,0.4,0.6,0.7c0.4,0.4,0.8,0.8,1.2,1.2c0.9,0.7,1.8,1.2,2.9,1.6c2.1,0.7,4.5,1,6.8,0.9
		c2.3,0,4.6-0.4,7-0.9c1.2-0.3,2.3-0.6,3.5-0.9c1.2-0.3,2.4-0.6,3.8-0.7c2.6,0,4.9,0.3,7.4,0.4c2.4,0.1,4.8,0.2,7.1-0.1
		c1.1-0.1,2.3-0.3,3.3-0.6c1-0.4,2-0.9,2.9-1.6c1.8-1.3,3.2-3.3,4.2-5.3l1.3,0.8l0,0c-1.7,1.8-3.7,3.2-5.9,4.4
		c-1.1,0.5-2.2,1-3.5,1.3s-2.6,0.3-3.8,0.1c-2.5-0.4-4.7-1.7-6.8-2.3c-1-0.3-1.9-0.1-2.8,0.5c-0.4,0.3-0.9,0.7-1.6,1
		c-0.6,0.3-1.3,0.5-2,0.5s-1.4,0-2-0.2c-0.7-0.2-1.2-0.6-1.7-0.8c-0.4-0.2-0.9-0.3-1.4-0.3s-1,0.1-1.3,0.3c-0.4,0.2-0.9,0.7-1.4,1
		c-0.6,0.3-1.1,0.6-1.7,0.8c-1.2,0.4-2.4,0.7-3.5,1c-2.3,0.5-4.8,0.8-7.3,0.6c-1.2-0.1-2.5-0.4-3.7-0.9c-0.6-0.2-1.2-0.5-1.7-0.9
		c-0.3-0.2-0.5-0.4-0.8-0.6C7.3,57.1,7.2,57,7,56.9l-0.2-0.2l-0.1-0.1v-0.1c-0.1-0.1-0.2-0.3-0.2-0.6C6.5,55.6,6.7,55.4,6.8,55.3z"
		/>
</g>
<g>
	<path class="st1" d="M12.1,44.5c0,0,1.1-9,5.8-9.8s13.9,6,13.9,6l-1.3-5.5c0,0,3.8,2.1,5.8,3.3s5,1.4,5,1.4s-0.8-4.1-1.3-5
		s-2.3-2.1-2.3-2.1s4.6,3.1,10.8,1.6s8.5-4.6,8.5-4.6s-7-1.8-8.8-2.9s-4.5-1.6-4.6-4.4s1.5-5.8,1.5-5.8s-4.5,4.6-12.5,6.5
		s-17.9,2.4-20.9,5.9C9,32.4,10,38,12.1,44.5z"/>
	<path class="st2" d="M12,43.8c-0.1,0-0.3,0-0.5,0.2c-0.1,0.1-0.2,0.3-0.2,0.4v-0.1v-0.2v-0.4c0-0.3,0-0.6,0.1-0.9
		c0.1-0.6,0.2-1.2,0.3-1.8c0.3-1.2,0.6-2.3,1.2-3.4c0.6-1.1,1.3-2.2,2.5-3.1c0.3-0.2,0.7-0.4,1-0.5c0.4-0.1,0.7-0.2,1.1-0.3
		c0.4,0,0.7-0.1,1.1-0.1c0.3,0,0.7,0.1,1,0.1c2.6,0.4,4.7,1.5,6.7,2.6c2,1.2,3.9,2.5,5.7,4l-1,0.6l-1.2-5.5
		c-0.1-0.4,0.2-0.8,0.6-0.9c0.2,0,0.4,0,0.5,0.1l0,0c1.8,0.9,3.5,1.9,5.2,2.8l0.6,0.4c0.2,0.1,0.4,0.2,0.6,0.3
		c0.4,0.2,0.8,0.3,1.3,0.5c0.9,0.3,1.8,0.5,2.7,0.6L40.5,40l0,0c-0.3-1.3-0.5-2.7-0.9-4c-0.1-0.3-0.2-0.7-0.3-0.8
		c-0.1-0.2-0.3-0.4-0.5-0.6c-0.4-0.4-1-0.9-1.5-1.2l0,0c-0.3-0.2-0.4-0.7-0.2-1s0.5-0.4,0.8-0.3l0.2,0.1c1.5,0.5,3.1,0.9,4.7,1.1
		c1.6,0.2,3.2,0.2,4.7-0.1c1.6-0.3,3.2-0.8,4.7-1.4c1.5-0.6,3-1.5,4.1-2.5l0,0l0.4,1.2C55,30,53.2,29.6,51.5,29
		c-0.9-0.3-1.8-0.6-2.7-1c-0.2-0.1-0.4-0.2-0.7-0.3l-0.3-0.2l-0.3-0.2c-0.4-0.2-0.8-0.4-1.2-0.6c-0.8-0.4-1.7-0.9-2.5-1.7
		c-0.4-0.4-0.7-0.9-0.8-1.5c-0.2-0.5-0.2-1.1-0.2-1.6c0.1-2,0.7-3.8,1.6-5.6l0,0l1.2,0.9c-1.6,1.7-3.5,2.9-5.4,4c-2,1.1-4,2-6.2,2.6
		c-4.3,1.2-8.6,1.8-12.8,2.7c-2.1,0.4-4.2,0.9-6,1.7c-0.9,0.4-1.8,0.9-2.3,1.5c-0.6,0.6-1,1.4-1.2,2.3c-0.5,1.8-0.3,3.9,0.1,5.9
		c0.2,1,0.4,2.1,0.6,3.1l0.3,1.6c0,0.1,0.1,0.3,0.1,0.4c0,0,0,0.1-0.1,0.1C12.3,43.2,12.1,43.5,12,43.8z M12.2,45.3
		c-0.2-0.2-0.6-0.5-0.9-0.9c-0.1-0.2-0.3-0.5-0.4-0.7l-0.2-0.4c-0.2-0.5-0.4-1-0.6-1.6c-0.4-1.1-0.7-2.1-0.9-3.2
		C9,37.3,8.9,36.2,8.8,35c0-1.2,0.1-2.4,0.4-3.6c0.3-1.2,0.9-2.4,1.9-3.3c1-1,2.1-1.5,3.1-2c2.2-0.9,4.3-1.3,6.5-1.8
		C25,23.5,29.4,23,33.5,22c4-1.1,8-3,11.1-5.8l0,0c0.3-0.3,0.8-0.2,1.1,0.1c0.2,0.2,0.2,0.6,0.1,0.8l0,0c-0.8,1.5-1.3,3.3-1.4,4.9
		c0,0.8,0.1,1.5,0.6,2s1.2,0.9,2,1.3c0.4,0.2,0.8,0.4,1.3,0.6l0.3,0.2l0.3,0.1c0.2,0.1,0.4,0.2,0.6,0.3c0.8,0.3,1.7,0.6,2.5,0.9
		c1.7,0.5,3.5,1,5.2,1.5c0.4,0.1,0.6,0.5,0.5,0.9c0,0.1-0.1,0.2-0.1,0.2l0,0l0,0c-1.2,1.6-2.7,2.7-4.3,3.7c-1.6,0.9-3.4,1.5-5.2,1.9
		c-0.9,0.2-1.9,0.3-2.8,0.3c-1,0-1.9-0.1-2.8-0.3c-1.9-0.4-3.6-1.2-5.1-2.5l0.9-1.2l0,0c0.6,0.4,1.1,0.9,1.7,1.4
		c0.3,0.3,0.5,0.5,0.8,1c0.2,0.5,0.3,0.8,0.4,1.1c0.4,1.4,0.7,2.7,0.9,4.1l0,0c0.1,0.4-0.2,0.8-0.6,0.9c-0.1,0-0.1,0-0.2,0l0,0
		c-1.1-0.1-2-0.2-3.1-0.5c-0.5-0.1-1-0.3-1.5-0.5c-0.2-0.1-0.5-0.2-0.7-0.4l-0.7-0.4c-1.7-1-3.4-1.9-5.1-3l0,0l1.1-0.8l1.3,5.5
		c0.1,0.4-0.2,0.8-0.6,0.9c-0.2,0-0.4,0-0.6-0.1h-0.1c-1.9-1.2-3.9-2.3-5.9-3.2c-2-1-4.1-1.8-6-2.1c-0.2,0-0.5-0.1-0.7-0.1L18,36
		c-0.2,0.1-0.4,0.1-0.5,0.2c-0.2,0.1-0.3,0.2-0.5,0.3c-0.7,0.4-1.3,1.3-1.8,2.1c-0.5,0.9-0.9,1.9-1.3,2.9c-0.2,0.5-0.4,1-0.5,1.6
		l-0.2,0.8l-0.1,0.4L13,44.5v0.1c0,0.1-0.1,0.3-0.2,0.5C12.5,45.2,12.3,45.2,12.2,45.3z"/>
</g>
<g>
	<path class="st2" d="M41.7,29.7c1.2,0.4,2.4,0.7,3.6,0.9c1.2,0.1,2.4,0.1,3.6,0c1.2-0.1,2.4-0.4,3.6-0.6c1.2-0.2,2.5-0.5,3.7-0.7
		c0.4-0.1,0.8,0.2,0.8,0.7c0,0.4-0.2,0.7-0.5,0.8c-1.2,0.4-2.4,0.8-3.7,1.1c-1.3,0.3-2.6,0.5-3.9,0.6c-1.3,0.1-2.7,0-4-0.4
		s-2.5-0.9-3.6-1.7c-0.1-0.1-0.2-0.3-0.1-0.4C41.4,29.7,41.5,29.6,41.7,29.7z"/>
</g>
<circle class="st2" cx="22.6" cy="47.2" r="0.8"/>
<circle class="st2" cx="41.4" cy="46.8" r="0.8"/>
</svg>
