<?xml version="1.0" encoding="utf-8"?>
<!-- Generator: Adobe Illustrator 22.0.1, SVG Export Plug-In . SVG Version: 6.00 Build 0)  -->
<svg version="1.1" id="Layer_1" xmlns="http://www.w3.org/2000/svg" xmlns:xlink="http://www.w3.org/1999/xlink" x="0px" y="0px"
	 viewBox="0 0 97 98.2" style="enable-background:new 0 0 97 98.2;" xml:space="preserve">
<style type="text/css">
	.st0{fill:#444140;}
	.st1{fill:#F97F00;}
	.st2{display:none;fill:none;stroke:#444140;stroke-miterlimit:10;}
	.st3{fill:#F5EFE5;stroke:#444140;stroke-width:1.5;stroke-linejoin:round;stroke-miterlimit:10;}
	.st4{fill:#F5EFE5;}
	.st5{fill:none;stroke:#444140;stroke-width:0.9849;stroke-linecap:round;stroke-miterlimit:10;}
	.st6{fill:none;stroke:#444140;stroke-linecap:round;stroke-miterlimit:10;}
	.st7{fill:#444140;stroke:#444140;stroke-linejoin:round;stroke-miterlimit:10;}
	.st8{fill:#75B3BB;}
	.st9{fill:#FFAE3C;stroke:#444140;stroke-linejoin:round;stroke-miterlimit:10;}
	.st10{display:none;fill:#FFAE3C;stroke:#FFAE3C;stroke-width:1.5;stroke-linejoin:round;stroke-miterlimit:10;}
	.st11{fill:#444140;stroke:#444140;stroke-width:2;stroke-linejoin:round;stroke-miterlimit:10;}
</style>
<g>
	<path class="st0" d="M14.1,92.2v3.3c-0.5,0.2-0.9,0.4-1.3,0.5c-0.4,0.1-0.9,0.2-1.3,0.2c-1,0-1.9-0.3-2.6-1c-0.7-0.7-1-1.6-1-2.6
		c0-1.1,0.3-1.9,1-2.6c0.7-0.7,1.6-1,2.6-1c0.4,0,0.8,0.1,1.1,0.2c0.4,0.1,0.7,0.3,1,0.5l-0.2,1.7c-0.3-0.3-0.6-0.6-0.9-0.7
		c-0.3-0.1-0.6-0.2-1-0.2c-0.6,0-1.1,0.2-1.5,0.6s-0.6,0.9-0.6,1.5c0,0.6,0.2,1.2,0.6,1.6c0.4,0.4,0.9,0.6,1.5,0.6
		c0.1,0,0.3,0,0.4,0c0.1,0,0.3-0.1,0.5-0.1v-1h-1.3v-1.4H14.1z"/>
	<path class="st0" d="M15.4,92.5c0-0.5,0.1-1,0.3-1.4c0.2-0.4,0.4-0.8,0.8-1.2c0.3-0.3,0.7-0.6,1.1-0.8c0.4-0.2,0.9-0.3,1.3-0.3
		s0.9,0.1,1.3,0.3c0.4,0.2,0.8,0.4,1.1,0.8c0.3,0.3,0.6,0.7,0.8,1.2s0.3,0.9,0.3,1.4c0,0.4-0.1,0.8-0.2,1.2c-0.1,0.4-0.3,0.7-0.5,1
		c-0.3,0.4-0.7,0.8-1.2,1c-0.5,0.2-1,0.4-1.5,0.4c-0.5,0-0.9-0.1-1.3-0.3c-0.4-0.2-0.8-0.4-1.1-0.8c-0.3-0.3-0.6-0.7-0.8-1.2
		C15.4,93.5,15.4,93,15.4,92.5z M17,92.5c0,0.6,0.2,1.1,0.5,1.5c0.3,0.4,0.8,0.6,1.3,0.6c0.5,0,0.9-0.2,1.3-0.6
		c0.3-0.4,0.5-0.9,0.5-1.5c0-0.6-0.2-1.1-0.5-1.5c-0.3-0.4-0.8-0.6-1.3-0.6c-0.5,0-0.9,0.2-1.3,0.6C17.2,91.4,17,91.9,17,92.5z"/>
	<path class="st0" d="M23.8,95.9v-6.8h1.6v5.4h2.7v1.5H23.8z"/>
	<path class="st0" d="M29.3,95.9v-6.8h1.8c1.3,0,2.3,0.3,3,0.9c0.7,0.6,1.1,1.4,1.1,2.5c0,0.6-0.1,1.2-0.4,1.7
		c-0.3,0.5-0.7,0.9-1.3,1.2c-0.3,0.2-0.7,0.3-1,0.4s-0.8,0.1-1.4,0.1H29.3z M30.9,94.5h0.4c0.7,0,1.3-0.2,1.7-0.5
		c0.4-0.3,0.6-0.8,0.6-1.4s-0.2-1.1-0.6-1.4c-0.4-0.3-1-0.5-1.7-0.5h-0.4V94.5z"/>
	<path class="st0" d="M36.7,95.9v-6.8h4.2v1.4h-2.6v1.2h2.2v1.4h-2.2v1.4h2.7v1.4H36.7z"/>
	<path class="st0" d="M42.5,95.9v-7h0.2l4.2,4v-3.8h1.5v7.1h-0.1l-4.3-4v3.7H42.5z"/>
	<path class="st0" d="M54.9,95.9v-5.4h-2.2v-1.4h6v1.4h-2.2v5.4H54.9z"/>
	<path class="st1" d="M59.5,92.5c0-0.5,0.1-1,0.3-1.4c0.2-0.4,0.4-0.8,0.8-1.2c0.3-0.3,0.7-0.6,1.1-0.8c0.4-0.2,0.9-0.3,1.3-0.3
		s0.9,0.1,1.3,0.3c0.4,0.2,0.8,0.4,1.1,0.8c0.3,0.3,0.6,0.7,0.8,1.2s0.3,0.9,0.3,1.4c0,0.4-0.1,0.8-0.2,1.2c-0.1,0.4-0.3,0.7-0.5,1
		c-0.3,0.4-0.7,0.8-1.2,1c-0.5,0.2-1,0.4-1.5,0.4c-0.5,0-0.9-0.1-1.3-0.3c-0.4-0.2-0.8-0.4-1.1-0.8c-0.3-0.3-0.6-0.7-0.8-1.2
		C59.5,93.5,59.5,93,59.5,92.5z M61.1,92.5c0,0.6,0.2,1.1,0.5,1.5c0.3,0.4,0.8,0.6,1.3,0.6c0.5,0,0.9-0.2,1.3-0.6
		c0.3-0.4,0.5-0.9,0.5-1.5c0-0.6-0.2-1.1-0.5-1.5c-0.3-0.4-0.8-0.6-1.3-0.6c-0.5,0-0.9,0.2-1.3,0.6C61.3,91.4,61.1,91.9,61.1,92.5z"
		/>
	<path class="st0" d="M67.5,92.5c0-0.5,0.1-1,0.3-1.4c0.2-0.4,0.4-0.8,0.8-1.2c0.3-0.3,0.7-0.6,1.1-0.8c0.4-0.2,0.9-0.3,1.3-0.3
		s0.9,0.1,1.3,0.3c0.4,0.2,0.8,0.4,1.1,0.8c0.3,0.3,0.6,0.7,0.8,1.2s0.3,0.9,0.3,1.4c0,0.4-0.1,0.8-0.2,1.2c-0.1,0.4-0.3,0.7-0.5,1
		c-0.3,0.4-0.7,0.8-1.2,1c-0.5,0.2-1,0.4-1.5,0.4c-0.5,0-0.9-0.1-1.3-0.3c-0.4-0.2-0.8-0.4-1.1-0.8c-0.3-0.3-0.6-0.7-0.8-1.2
		C67.6,93.5,67.5,93,67.5,92.5z M69.2,92.5c0,0.6,0.2,1.1,0.5,1.5c0.3,0.4,0.8,0.6,1.3,0.6c0.5,0,0.9-0.2,1.3-0.6
		c0.3-0.4,0.5-0.9,0.5-1.5c0-0.6-0.2-1.1-0.5-1.5c-0.3-0.4-0.8-0.6-1.3-0.6c-0.5,0-0.9,0.2-1.3,0.6C69.4,91.4,69.2,91.9,69.2,92.5z"
		/>
	<path class="st0" d="M77.4,95.9v-5.4h-2.2v-1.4h6v1.4H79v5.4H77.4z"/>
	<path class="st0" d="M82.3,95.9v-6.8h1.6v2.5h2.6v-2.5h1.6v6.8h-1.6v-2.9h-2.6v2.9H82.3z"/>
</g>
<line class="st2" x1="-5.8" y1="92.2" x2="3.2" y2="92.2"/>
<line class="st2" x1="90.9" y1="92.2" x2="99.9" y2="92.2"/>
<g>
	<path class="st3" d="M27.5,47.5c0,0-1.9-1.7-3-0.8c-1.1,0.9-0.8,3.6,0.6,4.7s3.2,0.1,3.2,0.1L27.5,47.5z"/>
	<path class="st3" d="M66.5,43c0,0,1.7-1.6,3.2-0.9c1.6,0.8,1.5,3.8,0.3,4.8s-3.3,1.4-3.3,1.4L66.5,43z"/>
</g>
<g>
	<path class="st4" d="M67.7,56.5c0,0-0.6-5.6-0.5-9.3s0.3-7.9-0.6-10.4s-4.4-6.6-4.4-6.6l-13.5-2.8L34,29.7l-7.1,6.5l0.1,6.5
		c0,0,0.5,2.6,0.8,5.9s0.4,9.4,0.4,9.4L67.7,56.5z"/>
	<path class="st0" d="M67.2,56c-0.1,0.1-0.2,0.3-0.2,0.4c0,0.1,0,0.1,0,0.1l0,0l0-0.1l0-0.2l-0.1-0.4l-0.1-0.9l-0.2-1.7
		c-0.1-1.2-0.3-2.3-0.3-3.5c-0.1-1.2-0.1-2.4-0.1-3.5c0-1.1,0-2.3,0-3.4c-0.1-2.2-0.2-4.5-1-6.2c-0.9-1.9-2.2-3.8-3.4-5.8l0,0
		l0.4,0.2l-13.5-2.7l0.3,0l-14.7,2.2l0.4-0.2l-7.1,6.5l0,0l0.2-0.6c0.2,2.2,0.3,4.3,0.4,6.5l0-0.2c0.3,1.3,0.5,2.6,0.6,3.9
		c0.2,1.3,0.3,2.6,0.3,3.9c0.1,2.6,0.2,5.1,0,7.7l0,0l-0.8-0.7C41.1,56.7,54.1,56.3,67.2,56z M68.3,57c-13.3,0.6-26.8,1.3-40.2,1.8
		l-0.7,0L27.4,58l0,0c-0.5-2.5-0.6-5.1-0.6-7.6c0-1.3-0.1-2.5-0.2-3.8c-0.1-1.2-0.3-2.5-0.5-3.7l0-0.1l0-0.1c0-2.2,0-4.3,0.1-6.5
		l0-0.4l0.2-0.2l0,0l7.1-6.5l0.2-0.2l0.2,0l14.7-2.2l0.1,0l0.1,0l13.5,2.7l0.2,0l0.2,0.2l0,0c1.8,1.6,3.3,3.3,4.5,5.6
		c0.3,0.6,0.6,1.2,0.7,1.9c0.2,0.6,0.3,1.3,0.3,1.9c0.1,1.2,0.2,2.4,0.2,3.6c0,2.4-0.2,4.7-0.2,6.9c0,1.1,0,2.3,0,3.4l0.1,1.7l0,0.9
		l0,0.4l0,0.2l0,0.1l0,0.1C68.5,56.6,68.4,56.8,68.3,57z"/>
</g>
<path class="st5" d="M10.7,77.8C4.1,69.4,0.5,59,0.5,48.4c0-26.3,21.7-47.9,48-47.9s48,21.6,48,47.9c0,10.6-3.6,21-10.1,29.4"/>
<path class="st6" d="M12.3,77.2c-6.4-8.1-10-18.2-10-28.6c0-25.3,20.8-46.1,46.1-46.1s46.1,20.8,46.1,46.1c0,10.4-3.5,20.6-10,28.7"
	/>
<circle class="st7" cx="93.4" cy="93" r="1.1"/>
<circle class="st7" cx="3.3" cy="93" r="1.1"/>
<g>
	<path class="st8" d="M20,74.2c0,0,10.3,7.8,28.3,7.5s28.7-12,28.7-12s-4.2-3.3-6.5-6.8c-2.3-3.5-3-7.5-3-7.5h-19L28.1,58
		c0,0-0.6,5.2-2.8,8.9S20,74.2,20,74.2z"/>
	<path class="st0" d="M20.7,74.1c0-0.1,0-0.3-0.1-0.4c0,0,0,0-0.1-0.1l0,0l0,0l0.2,0.1l0.4,0.2c0.3,0.2,0.5,0.3,0.8,0.4
		c0.6,0.3,1.1,0.6,1.7,0.8c1.1,0.5,2.3,1,3.5,1.4c2.4,0.8,4.8,1.5,7.2,2.1c4.9,1,9.9,1.5,14.9,1.2c4.9-0.3,9.8-1.3,14.4-3.2
		c4.6-1.8,9-4.4,12.8-7.6l0,0l0.1,1.1c-1.2-1-2.3-2-3.3-3c-1-1.1-2.1-2.2-2.9-3.4c-0.9-1.2-1.6-2.6-2.2-4c-0.6-1.4-1-2.8-1.3-4.4
		l0.7,0.6h-19l0.1,0l-20.3,2.6l0,0l0.7-0.7c-0.2,1.6-0.5,3.1-0.9,4.7c-0.4,1.5-1,3-1.8,4.5c-0.8,1.4-1.7,2.7-2.6,3.9
		c-0.5,0.6-1,1.2-1.4,1.8l-0.8,0.9l-0.4,0.4l-0.2,0.2l-0.1,0.1l0,0.1l0,0c0,0,0.1-0.1,0.1-0.2C20.7,74.4,20.7,74.3,20.7,74.1z
		 M19.2,74.3c0-0.1,0-0.3,0.1-0.4c0-0.1,0.1-0.1,0.1-0.2l0,0l0-0.1l0.1-0.1l0.2-0.2l0.4-0.4l0.7-0.9c0.5-0.6,0.9-1.2,1.4-1.8
		c0.9-1.2,1.7-2.5,2.5-3.8c0.7-1.3,1.3-2.6,1.7-4.1c0.4-1.4,0.8-2.9,1-4.4l0,0c0.1-0.3,0.3-0.6,0.6-0.6l0,0l20.3-2.6
		c0,0,0.1,0,0.1,0h19c0.4,0,0.7,0.3,0.7,0.6l0,0c0.3,1.3,0.7,2.7,1.2,4c0.5,1.3,1.2,2.6,2,3.7c0.8,1.1,1.8,2.2,2.8,3.2
		c1,1,2.1,2,3.2,2.9c0.3,0.3,0.4,0.7,0.1,1.1l0,0l0,0l0,0c-1.7,2.1-3.7,3.8-5.8,5.4c-2.1,1.6-4.4,2.9-6.8,4
		C60,81.9,54.7,83,49.4,83.3c-5.3,0.2-10.6-0.4-15.7-1.7c-2.5-0.7-5-1.6-7.4-2.7c-1.2-0.6-2.4-1.1-3.5-1.8c-0.6-0.3-1.1-0.7-1.7-1
		c-0.3-0.2-0.5-0.4-0.8-0.6l-0.4-0.3L19.7,75l-0.2-0.2C19.4,74.7,19.2,74.5,19.2,74.3z"/>
</g>
<g>
	<path class="st0" d="M27.3,77.6c0.2-0.6,0.5-0.9,0.9-1.3c0.4-0.3,0.8-0.6,1.2-0.9c0.8-0.6,1.5-1.3,2.3-2c1.5-1.4,2.8-2.9,4-4.6
		c0.1-0.2,0.3-0.2,0.5-0.1c0.1,0.1,0.2,0.3,0.1,0.4c-0.9,1.9-2,3.7-3.3,5.4c-0.6,0.8-1.3,1.7-2.1,2.4c-0.4,0.4-0.8,0.7-1.2,1.1
		c-0.4,0.3-0.9,0.6-1.5,0.7c-0.5,0-0.9-0.4-0.9-0.9C27.3,77.8,27.3,77.7,27.3,77.6L27.3,77.6z"/>
</g>
<g>
	<path class="st0" d="M36.9,80.1c-0.3-1.3,0.4-1.7,0.9-2.3c0.5-0.6,0.9-1.3,1.4-1.9c0.9-1.3,1.7-2.7,2.6-4.2
		c0.1-0.2,0.3-0.2,0.4-0.1c0.1,0.1,0.2,0.2,0.2,0.3c0,1.7-0.4,3.4-1,5.1c-0.3,0.8-0.7,1.6-1.1,2.4C39.6,80,39.4,81,38,81
		C37.5,81,37,80.7,36.9,80.1L36.9,80.1z"/>
</g>
<g>
	<path class="st0" d="M48.2,81.3c-0.5-0.5-0.5-0.8-0.4-1.1c0.1-0.3,0.2-0.6,0.3-0.8c0.1-0.6,0.3-1.1,0.4-1.7
		c0.3-1.2,0.5-2.3,0.7-3.6l0,0c0.1-0.3,0.4-0.5,0.7-0.4c0.2,0,0.3,0.2,0.4,0.3c0.5,1.3,0.7,2.6,0.7,4c0,0.7-0.1,1.4-0.2,2
		c-0.1,0.3-0.1,0.7-0.2,1c-0.1,0.3-0.2,0.6-1,0.8C49.1,81.9,48.6,81.7,48.2,81.3L48.2,81.3z"/>
</g>
<g>
	<path class="st0" d="M61.3,79c-0.9,0.1-1.1-0.4-1.3-0.8c-0.2-0.4-0.4-0.8-0.5-1.2c-0.3-0.8-0.6-1.6-0.7-2.5c-0.4-1.7-0.5-3.4-0.4-5
		c0-0.2,0.2-0.4,0.4-0.4c0.2,0,0.3,0.1,0.4,0.3c0.7,1.5,1.2,3,1.9,4.4c0.3,0.7,0.7,1.4,1,2.1c0.2,0.3,0.4,0.7,0.6,1
		c0.2,0.3,0.5,0.5,0,1.3l-0.1,0.1C62.2,78.7,61.8,78.9,61.3,79z"/>
</g>
<g>
	<path class="st0" d="M70.9,75.1c-1.8-0.9-3.3-2.2-4.6-3.6c-1.3-1.4-2.4-3-3.3-4.6c-0.1-0.2-0.1-0.5,0.1-0.6
		c0.2-0.1,0.4-0.1,0.5,0.1c2.3,2.8,5.2,5.2,8.4,6.2c0.7,0.2,1.1,1,0.9,1.7c-0.2,0.7-1,1.1-1.7,0.9C71.1,75.2,71,75.2,70.9,75.1
		L70.9,75.1z"/>
</g>
<g>
	<path class="st4" d="M37.4,58.7c0,0,1.6,6.9,10.9,6.5s11.8-8,11.8-8l-5.6-1.7L43.9,56L37.4,58.7z"/>
	<path class="st0" d="M38,59c0.1-0.1,0.1-0.2,0.1-0.3c0,0,0-0.1,0-0.1l0,0l0,0.1l0.1,0.2c0,0.1,0.1,0.2,0.2,0.4
		c0.1,0.2,0.2,0.5,0.4,0.7c0.3,0.5,0.6,0.9,1,1.3c0.7,0.8,1.6,1.5,2.6,1.9c2,1,4.3,1.2,6.6,1c2.3-0.2,4.5-0.8,6.3-2.1
		c1.8-1.2,3.4-3.1,4.2-5.1l0,0l0.5,0.9l-5.6-1.7l0.3,0L44,56.7l0.2-0.1C42.2,57.5,40.2,58.3,38,59z M36.7,58.3c2.3-1,4.6-2.1,6.9-3
		c0.1,0,0.2-0.1,0.2-0.1l10.6-0.5c0.1,0,0.2,0,0.3,0l5.6,1.7l0,0c0.4,0.1,0.6,0.5,0.5,0.9l0,0l0,0c-0.9,2.5-2.5,4.6-4.6,6.1
		c-2.1,1.6-4.7,2.3-7.2,2.5c-2.5,0.2-5.2,0-7.5-1.3c-1.2-0.6-2.2-1.4-3.1-2.4c-0.4-0.5-0.8-1.1-1.1-1.6c-0.1-0.3-0.3-0.6-0.4-0.9
		c-0.1-0.2-0.1-0.3-0.2-0.5l-0.1-0.2l0-0.1l0,0c0,0,0-0.1,0-0.2C36.6,58.6,36.6,58.4,36.7,58.3z"/>
</g>
<g>
	<path class="st0" d="M40.2,62c-0.1,0-0.1,0-0.2,0c0,0-0.1,0-0.1,0l0,0l0.1,0L40.2,62l0.2-0.1l0.5-0.1l1.1-0.2
		c0.7-0.1,1.4-0.3,2.1-0.4c1.4-0.2,2.9-0.4,4.3-0.4c2.9-0.1,5.7,0.1,8.6,0.2l0,0l-0.6,0.2c1.3-1.1,2.2-2.7,3-4.3l0.5,1.1l-6-1.6
		l0.2,0l-5.5,0.2c-0.9,0-1.8,0.1-2.7,0.2L43.3,57l0.2-0.1l-5.8,2.4l0.4-0.9c0.2,0.7,0.5,1.5,0.9,2.1c0.1,0.2,0.2,0.3,0.3,0.4
		l0.4,0.4l0.4,0.4l0.2,0.2l0.1,0.1l0,0l0,0l0,0l0,0C40.6,62.2,40.4,62,40.2,62z M40,63.5c-0.2,0-0.4-0.2-0.3-0.1l0,0l0,0l0,0
		l-0.1-0.1l-0.1-0.1l-0.3-0.2l-0.5-0.5l-0.5-0.5c-0.2-0.2-0.3-0.4-0.4-0.6c-0.3-0.4-0.5-0.8-0.6-1.2c-0.2-0.4-0.3-0.8-0.5-1.3
		c-0.1-0.4,0.1-0.8,0.4-0.9l0,0l5.8-2.4c0.1,0,0.1,0,0.2-0.1l2.7-0.3c0.9-0.1,1.8-0.2,2.7-0.2l5.5-0.2c0.1,0,0.2,0,0.2,0l6,1.6
		c0.4,0.1,0.6,0.5,0.5,0.9c0,0.1,0,0.1-0.1,0.2c-0.9,1.6-1.8,3.4-3.4,4.7l0,0c-0.2,0.1-0.4,0.2-0.5,0.1l0,0
		c-1.4-0.3-2.8-0.5-4.2-0.7c-1.4-0.2-2.8-0.2-4.2-0.2c-1.4,0-2.8,0.2-4.1,0.6c-0.7,0.2-1.4,0.4-2,0.6l-1,0.4l-0.5,0.2l-0.2,0.1
		l-0.1,0.1l-0.1,0l0,0c0,0-0.1,0-0.1,0C40.2,63.5,40.1,63.5,40,63.5z"/>
</g>
<line class="st9" x1="44.7" y1="61.7" x2="43.7" y2="56.7"/>
<line class="st10" x1="42.2" y1="61.7" x2="40.6" y2="57.6"/>
<line class="st10" x1="55.7" y1="61.5" x2="57.4" y2="56.7"/>
<g>
	<path class="st1" d="M49.1,62c-0.2,0-0.4-0.2-0.4-0.4l-0.1-5.6c0-0.1,0.1-0.2,0.1-0.3c0.1-0.1,0.2-0.1,0.3-0.1c0,0,0.1,0,0.1,0
		l4.7,0.9c0.2,0,0.4,0.2,0.3,0.4l-0.3,5.1c0,0.1-0.1,0.2-0.1,0.3c-0.1,0.1-0.2,0.1-0.3,0.1C53.4,62.3,49.1,62,49.1,62z"/>
	<path class="st0" d="M49,55.9l4.7,0.9l-0.3,5.1l-4.3-0.4L49,55.9 M49,55.1c-0.2,0-0.4,0.1-0.5,0.2c-0.2,0.2-0.3,0.4-0.3,0.7
		l0.1,5.6c0,0.4,0.3,0.8,0.8,0.8l4.3,0.4c0,0,0,0,0.1,0c0.2,0,0.4-0.1,0.6-0.2c0.2-0.1,0.3-0.4,0.3-0.6l0.3-5.1
		c0-0.4-0.3-0.8-0.7-0.9l-4.7-0.9C49.1,55.1,49,55.1,49,55.1L49,55.1z"/>
</g>
<g>
	<path class="st0" d="M48.6,46.2c0.6,0.5,1.1,1,1.6,1.5c0.2,0.3,0.5,0.6,0.7,0.9c0.2,0.3,0.4,0.7,0.5,1.3c0,0.3-0.1,0.7-0.2,0.9
		c-0.1,0.2-0.3,0.4-0.4,0.6c-0.3,0.3-0.6,0.6-0.9,0.9c-0.7,0.4-1.3,0.8-2.1,0.8c-0.4,0-0.8-0.3-0.9-0.7c0-0.3,0.1-0.5,0.3-0.7l0.1,0
		c0.5-0.4,1.1-0.7,1.7-1c0.3-0.1,0.6-0.3,0.8-0.4c0.2-0.1,0.4-0.3,0.4-0.3c0-0.1-0.1-0.4-0.2-0.7c-0.1-0.3-0.3-0.6-0.5-0.8
		c-0.4-0.5-0.9-1.1-1.4-1.5l0,0c-0.2-0.2-0.2-0.5,0-0.7C48.1,46,48.4,46,48.6,46.2z"/>
</g>
<circle class="st11" cx="36.9" cy="46" r="1.1"/>
<circle class="st11" cx="55.8" cy="46" r="1.1"/>
<g>
	<path class="st0" d="M31.8,43c0.6-1,1.4-1.7,2.4-2.2c0.9-0.5,2-0.9,3.1-1c0.2,0,0.3,0.1,0.3,0.3c0,0.1,0,0.2-0.1,0.2
		c-0.8,0.7-1.5,1.4-2.3,2c-0.7,0.6-1.4,1.2-2.3,1.7l0,0c-0.4,0.2-0.8,0.1-1.1-0.2C31.6,43.5,31.6,43.2,31.8,43z"/>
</g>
<g>
	<path class="st0" d="M56.1,40c1,0.3,2,0.7,2.9,1.2c0.5,0.2,0.9,0.5,1.4,0.8c0.5,0.3,0.9,0.6,1.3,1c0.4,0.4,0.4,1,0,1.4
		c-0.4,0.4-1,0.4-1.4,0l0,0c-0.3-0.3-0.7-0.6-1.1-1c-0.4-0.3-0.8-0.6-1.2-0.9c-0.8-0.6-1.6-1.1-2.5-1.7c-0.2-0.2-0.3-0.5-0.1-0.7
		C55.6,40,55.9,39.9,56.1,40z"/>
</g>
<g>
	<path class="st8" d="M22,53.9c0,0,2.8,4,11.5,2.6s7-3.2,9.7-3.4c2.7-0.3,2.6,1.4,5.3,1.3s2.9-2,5.4-2.2c2.6-0.2,7,3.8,12.1,2.3
		c5.1-1.6,8.4-5.3,8.4-5.3s-2.4,6.4-8.5,7.8c-5.9,1.3-13.9,0-17.2,0.2c-3.3,0.2-9.1,2.9-16,2.4C25.8,59,23.8,56.4,22,53.9z"/>
	<path class="st0" d="M22.4,54.5c0.1-0.1,0.3-0.2,0.3-0.5c0-0.3-0.1-0.5-0.1-0.5l0,0l0.1,0.1l0.1,0.1c0.1,0.1,0.2,0.2,0.3,0.3
		c0.2,0.2,0.4,0.3,0.6,0.5c0.5,0.3,0.9,0.6,1.4,0.7c1,0.4,2.1,0.6,3.2,0.7c2.3,0.2,4.5-0.1,6.8-0.6c1.1-0.2,2.3-0.5,3.3-0.9
		c0.5-0.2,1-0.4,1.5-0.7c0.5-0.3,0.8-0.6,1.5-1c0.7-0.4,1.4-0.5,2.1-0.5c0.7,0,1.4,0.1,2.1,0.4c0.6,0.3,1.1,0.6,1.5,0.8
		c0.4,0.1,0.9,0.2,1.5,0.1c1.1,0,1.8-0.5,2.8-1.3c0.5-0.4,1.2-0.7,1.9-0.8c0.3-0.1,0.7-0.1,1.1-0.1c0.4,0,0.7,0.1,1,0.2
		c1.3,0.4,2.3,0.9,3.4,1.3c1.1,0.4,2.2,0.8,3.2,1c1.1,0.2,2.2,0.2,3.2-0.1c1-0.2,2.1-0.7,3.1-1.2c2-1,3.9-2.4,5.5-4l0,0
		c0.3-0.3,0.8-0.3,1.1-0.1c0.2,0.2,0.3,0.5,0.2,0.8c-0.5,1.2-1.1,2.3-1.8,3.4c-0.7,1-1.6,2-2.6,2.8c-1,0.8-2.2,1.5-3.4,2
		c-1.3,0.4-2.5,0.6-3.8,0.8c-2.5,0.3-5,0.3-7.4,0.2c-2.4-0.1-4.9-0.3-7.2-0.3c-1,0-2.2,0.3-3.3,0.6c-1.2,0.3-2.3,0.6-3.6,0.9
		c-2.4,0.5-4.9,0.9-7.4,0.9c-1.3,0-2.5-0.1-3.8-0.3c-1.2-0.2-2.5-0.5-3.7-0.9c-1.2-0.5-2.4-1.2-3.4-2c-0.5-0.4-0.9-0.9-1.3-1.4
		c-0.2-0.3-0.4-0.5-0.6-0.8l-0.1-0.2l-0.1-0.1c0,0,0,0,0.1,0c0.1,0,0.2,0,0.4,0C22.3,54.8,22.4,54.6,22.4,54.5z M21.6,53.3
		c0.1,0,0.3,0,0.5,0c0.2,0,0.5,0.2,0.6,0.3c0.1,0.1,0.1,0.2,0.2,0.2L23,54l0.1,0.2c0.2,0.2,0.4,0.4,0.6,0.7c0.4,0.4,0.8,0.8,1.2,1.2
		c0.9,0.7,1.8,1.2,2.9,1.6c2.1,0.7,4.5,1,6.8,0.9c2.3,0,4.6-0.4,7-0.9c1.2-0.3,2.3-0.6,3.5-0.9c1.2-0.3,2.4-0.6,3.8-0.7
		c2.6,0,4.9,0.3,7.4,0.4c2.4,0.1,4.8,0.2,7.1-0.1c1.1-0.1,2.3-0.3,3.3-0.6c1-0.4,2-0.9,2.9-1.6c1.8-1.3,3.2-3.3,4.2-5.3l1.3,0.8l0,0
		c-1.7,1.8-3.7,3.2-5.9,4.4c-1.1,0.5-2.2,1-3.5,1.3c-1.3,0.3-2.6,0.3-3.8,0.1c-2.5-0.4-4.7-1.7-6.8-2.3c-1-0.3-1.9-0.1-2.8,0.5
		c-0.4,0.3-0.9,0.7-1.6,1c-0.6,0.3-1.3,0.5-2,0.5c-0.7,0-1.4,0-2-0.2c-0.7-0.2-1.2-0.6-1.7-0.8c-0.4-0.2-0.9-0.3-1.4-0.3
		c-0.5,0-1,0.1-1.3,0.3c-0.4,0.2-0.9,0.7-1.4,1c-0.6,0.3-1.1,0.6-1.7,0.8c-1.2,0.4-2.4,0.7-3.5,1c-2.3,0.5-4.8,0.8-7.3,0.6
		c-1.2-0.1-2.5-0.4-3.7-0.9c-0.6-0.2-1.2-0.5-1.7-0.9c-0.3-0.2-0.5-0.4-0.8-0.6c-0.1-0.1-0.2-0.2-0.4-0.3l-0.2-0.2l-0.1-0.1l0-0.1
		c-0.1-0.1-0.2-0.3-0.2-0.6C21.3,53.5,21.5,53.4,21.6,53.3z"/>
</g>
<g>
	<path class="st8" d="M26.9,42.5c0,0,1.1-9,5.8-9.8c4.6-0.8,13.9,6,13.9,6l-1.3-5.5c0,0,3.8,2.1,5.8,3.3s5,1.4,5,1.4s-0.8-4.1-1.3-5
		c-0.5-0.9-2.3-2.1-2.3-2.1s4.6,3.1,10.8,1.6c6.1-1.5,8.5-4.6,8.5-4.6s-7-1.8-8.8-2.9s-4.5-1.6-4.6-4.4s1.5-5.7,1.5-5.7
		s-4.5,4.6-12.5,6.5s-17.9,2.4-20.9,5.9C23.7,30.3,24.7,35.9,26.9,42.5z"/>
	<path class="st0" d="M26.8,41.7c-0.1,0-0.3,0-0.5,0.2c-0.1,0.1-0.2,0.3-0.2,0.4l0-0.1l0-0.2l0-0.4c0-0.3,0-0.6,0.1-0.9
		c0.1-0.6,0.2-1.2,0.3-1.8c0.3-1.2,0.6-2.3,1.2-3.4c0.6-1.1,1.3-2.2,2.5-3.1c0.3-0.2,0.7-0.4,1-0.5c0.4-0.1,0.7-0.2,1.1-0.3
		c0.4,0,0.7-0.1,1.1-0.1c0.3,0,0.7,0.1,1,0.1c2.6,0.4,4.7,1.5,6.7,2.6c2,1.2,3.9,2.5,5.7,4l-1.2,0.8l-1.2-5.5
		c-0.1-0.4,0.2-0.8,0.6-0.9c0.2,0,0.4,0,0.5,0.1l0,0c1.8,0.9,3.5,1.9,5.2,2.8l0.6,0.4c0.2,0.1,0.4,0.2,0.6,0.3
		c0.4,0.2,0.8,0.3,1.3,0.5c0.9,0.3,1.8,0.5,2.7,0.6L55.3,38l0,0c-0.3-1.3-0.5-2.7-0.9-4c-0.1-0.3-0.2-0.7-0.3-0.8
		c-0.1-0.2-0.3-0.4-0.5-0.6c-0.4-0.4-1-0.9-1.5-1.2l0,0c-0.3-0.2-0.4-0.7-0.2-1c0.2-0.3,0.5-0.4,0.8-0.3l0.2,0.1
		c1.5,0.5,3.1,0.9,4.7,1.1c1.6,0.2,3.2,0.2,4.7-0.1c1.6-0.3,3.2-0.8,4.7-1.4c1.5-0.6,3-1.5,4.1-2.5l0,0l0.4,1.2
		c-1.8-0.5-3.6-0.9-5.3-1.5c-0.9-0.3-1.8-0.6-2.7-1c-0.2-0.1-0.4-0.2-0.7-0.3l-0.3-0.2l-0.3-0.2c-0.4-0.2-0.8-0.4-1.2-0.6
		c-0.8-0.4-1.7-0.9-2.5-1.7c-0.4-0.4-0.7-0.9-0.8-1.5c-0.2-0.5-0.2-1.1-0.2-1.6c0.1-2,0.7-3.8,1.6-5.6l0,0l1.2,0.9
		c-1.6,1.7-3.5,2.9-5.4,4c-2,1.1-4,2-6.2,2.6c-4.3,1.2-8.6,1.8-12.8,2.7c-2.1,0.4-4.2,0.9-6,1.7c-0.9,0.4-1.8,0.9-2.3,1.5
		c-0.6,0.6-1,1.4-1.2,2.3c-0.5,1.8-0.3,3.9,0.1,5.9c0.2,1,0.4,2.1,0.6,3.1l0.3,1.6c0,0.1,0.1,0.3,0.1,0.4c0,0,0,0.1-0.1,0.1
		C27.1,41.2,26.9,41.4,26.8,41.7z M26.9,43.2c-0.2-0.2-0.6-0.5-0.9-0.9c-0.1-0.2-0.3-0.5-0.4-0.7l-0.2-0.4c-0.2-0.5-0.4-1-0.6-1.6
		c-0.4-1.1-0.7-2.1-0.9-3.2c-0.2-1.1-0.4-2.2-0.4-3.4c0-1.2,0.1-2.4,0.4-3.6c0.3-1.2,0.9-2.4,1.9-3.3c1-1,2.1-1.5,3.1-2
		c2.2-0.9,4.3-1.3,6.5-1.8c4.3-0.8,8.7-1.3,12.8-2.3c4-1.1,8-3,11.1-5.8l0,0c0.3-0.3,0.8-0.2,1.1,0.1c0.2,0.2,0.2,0.6,0.1,0.8l0,0
		c-0.8,1.5-1.3,3.3-1.4,4.9c0,0.8,0.1,1.5,0.6,2c0.5,0.5,1.2,0.9,2,1.3c0.4,0.2,0.8,0.4,1.3,0.6l0.3,0.2l0.3,0.1
		c0.2,0.1,0.4,0.2,0.6,0.3c0.8,0.3,1.7,0.6,2.5,0.9c1.7,0.5,3.5,1,5.2,1.5c0.4,0.1,0.6,0.5,0.5,0.9c0,0.1-0.1,0.2-0.1,0.2l0,0l0,0
		c-1.2,1.6-2.7,2.7-4.3,3.7c-1.6,0.9-3.4,1.5-5.2,1.9C61.9,34,61,34.1,60,34.1c-1,0-1.9-0.1-2.8-0.3c-1.9-0.4-3.6-1.2-5.1-2.5
		l0.9-1.2l0,0c0.6,0.4,1.1,0.9,1.7,1.4c0.3,0.3,0.5,0.5,0.8,1c0.2,0.5,0.3,0.8,0.4,1.1c0.4,1.4,0.7,2.7,0.9,4.1l0,0
		c0.1,0.4-0.2,0.8-0.6,0.9c-0.1,0-0.1,0-0.2,0l0,0c-1.1-0.1-2-0.2-3.1-0.5c-0.5-0.1-1-0.3-1.5-0.5c-0.2-0.1-0.5-0.2-0.7-0.4L50,36.8
		c-1.7-1-3.4-1.9-5.1-3l0,0l1.1-0.8l1.3,5.5c0.1,0.4-0.2,0.8-0.6,0.9c-0.2,0-0.4,0-0.6-0.1l-0.1,0c-1.9-1.2-3.9-2.3-5.9-3.2
		c-2-1-4.1-1.8-6-2.1c-0.2,0-0.5-0.1-0.7-0.1l-0.6,0c-0.2,0.1-0.4,0.1-0.5,0.2c-0.2,0.1-0.3,0.2-0.5,0.3c-0.7,0.4-1.3,1.3-1.8,2.1
		c-0.5,0.9-0.9,1.9-1.3,2.9c-0.2,0.5-0.4,1-0.5,1.6l-0.2,0.8l-0.1,0.4l-0.1,0.2l0,0.1c0,0.1-0.1,0.3-0.2,0.5
		C27.3,43.1,27.1,43.2,26.9,43.2z"/>
</g>
<g>
	<path class="st0" d="M56.4,27.6c1.2,0.4,2.4,0.7,3.6,0.9c1.2,0.1,2.4,0.1,3.6,0c1.2-0.1,2.4-0.4,3.6-0.6c1.2-0.2,2.5-0.5,3.7-0.7
		c0.4-0.1,0.8,0.2,0.8,0.7c0,0.4-0.2,0.7-0.5,0.8c-1.2,0.4-2.4,0.8-3.7,1.1c-1.3,0.3-2.6,0.5-3.9,0.6c-1.3,0.1-2.7,0-4-0.4
		c-1.3-0.4-2.5-0.9-3.6-1.7c-0.1-0.1-0.2-0.3-0.1-0.4C56.2,27.6,56.3,27.6,56.4,27.6z"/>
</g>
</svg>
